<svg width="124" height="124" viewBox="0 0 124 124" fill="none" xmlns="http://www.w3.org/2000/svg">
<circle cx="62" cy="62" r="62" fill="#C9C6DF"/>
<path opacity="0.4" d="M35.4169 48.1292H3.78625C4.12363 47.0789 5.02118 46.2227 6.0906 45.9426C7.21413 45.6498 8.43951 45.9903 9.24476 46.8274C9.51848 45.7421 10.4606 44.8604 11.5618 44.6567C12.6599 44.4562 14.0508 44.9368 14.6905 45.8535C14.3913 45.1564 14.6905 44.2939 15.2889 43.8229C15.8841 43.3518 16.7084 43.2436 17.4532 43.3964C18.1948 43.5491 18.9746 44.0361 19.5857 44.4881C17.9434 41.9577 18.2807 38.3134 20.3623 36.13C22.4438 33.9434 26.0627 33.4278 28.6726 34.946C31.2825 36.4642 32.5174 40.0608 31.6485 42.9508C32.5842 42.2219 33.9433 42.0755 35.0127 42.5911C36.0821 43.1067 36.8142 44.2589 36.8269 45.4461C36.8396 46.4996 36.2826 47.5372 35.4169 48.1324V48.1292Z" fill="#EEEDF5"/>
<path d="M83.097 89.1843C82.1804 89.3053 81.2638 89.4262 80.3471 89.5471C79.1695 78.9548 83.3294 68.598 91.2641 61.8218C91.5919 62.1878 91.9198 62.557 92.2444 62.923C84.9622 69.7088 81.6075 79.5691 83.097 89.1843Z" fill="#B06D00"/>
<path d="M93.7237 65.1098C93.7205 65.4631 93.7237 65.8196 93.7301 66.1729C94.0579 66.2047 94.3857 66.2461 94.7072 66.2875C94.8345 66.1602 94.9586 66.0265 95.0668 65.8833C95.0827 66.036 95.0955 66.1856 95.1114 66.3384C95.3183 66.367 95.5252 66.3957 95.732 66.4275C95.993 66.036 96.2254 65.6254 96.3941 65.1958C96.7092 65.6382 96.8683 66.1315 96.9701 66.6344C97.1643 66.6694 97.3553 66.7044 97.5494 66.7426C97.8772 66.0328 98.1605 65.2976 98.326 64.5401C98.5615 65.3517 98.6984 66.1729 98.7589 66.9909C98.8003 67.0004 98.8416 67.01 98.883 67.0195C99.2204 67.0927 99.5514 67.1659 99.8824 67.2455C99.9588 67.0864 100.029 66.9272 100.092 66.7617C100.156 66.9495 100.201 67.1405 100.233 67.3282C100.417 67.3728 100.599 67.4205 100.78 67.4683C100.879 67.2964 100.974 67.1245 101.054 66.9431C101.079 67.1468 101.098 67.3537 101.111 67.5574C101.184 67.5765 101.254 67.5956 101.327 67.6147C101.458 67.3696 101.588 67.1277 101.719 66.8827C101.757 67.1723 101.786 67.4619 101.805 67.7484C101.897 67.7738 101.989 67.7993 102.082 67.8248C102.413 67.3442 102.712 66.8381 102.951 66.3034C102.947 66.8954 102.909 67.481 102.839 68.0539C103.017 68.108 103.196 68.1653 103.374 68.2226C103.769 67.5733 104.125 66.8986 104.405 66.1856C104.377 66.9718 104.291 67.742 104.147 68.4868C104.44 68.5886 104.733 68.6937 105.026 68.8082C105.236 68.5473 105.443 68.2831 105.646 68.0189C105.599 68.3467 105.541 68.6682 105.471 68.9833C106.385 69.3461 107.308 69.7631 108.231 70.2278C108.24 66.6694 105.112 62.3185 100.14 61.2841C95.191 60.1415 90.5282 62.7832 89.0482 66.0201C90.3786 65.9756 91.6708 66.0074 92.9121 66.1029C93.1826 65.775 93.4563 65.444 93.7269 65.113L93.7237 65.1098Z" fill="#3C9E7C"/>
<path d="M92.1554 67.4902C91.9994 67.7161 91.8466 67.9421 91.7002 68.1713C91.8975 68.3336 92.0885 68.4991 92.2763 68.6646C92.4132 68.6392 92.55 68.6073 92.6805 68.5628C92.6232 68.6646 92.5691 68.7697 92.515 68.8715C92.636 68.9797 92.7537 69.0879 92.8715 69.1961C93.2057 69.0593 93.5335 68.897 93.8263 68.6964C93.8359 69.1134 93.7245 69.4985 93.5717 69.8645C93.6799 69.9696 93.7881 70.0746 93.8963 70.1828C94.412 69.8709 94.9085 69.524 95.3413 69.1102C95.1408 69.7309 94.8735 70.3133 94.5615 70.8639C94.5838 70.8862 94.6061 70.9117 94.6284 70.9371C94.8098 71.1281 94.9912 71.3191 95.1695 71.5132C95.2872 71.4432 95.4018 71.3732 95.51 71.2968C95.4687 71.4432 95.4145 71.5832 95.3541 71.7201C95.4527 71.8283 95.5482 71.9365 95.6437 72.0448C95.7806 71.9779 95.9174 71.9079 96.0447 71.8283C95.9715 71.9684 95.8951 72.1084 95.8156 72.2453C95.8538 72.2898 95.892 72.3312 95.927 72.3758C96.1148 72.2771 96.3057 72.1753 96.4935 72.0766C96.3917 72.2771 96.2866 72.4744 96.1752 72.6654C96.223 72.7227 96.2707 72.7768 96.3185 72.8341C96.7386 72.6686 97.146 72.4776 97.5311 72.2389C97.2733 72.6145 96.9964 72.9741 96.7036 73.3083C96.7927 73.4197 96.8818 73.5343 96.9709 73.6489C97.5025 73.407 98.0213 73.1269 98.5082 72.7927C98.1517 73.2829 97.7635 73.738 97.3497 74.1518C97.4929 74.3427 97.633 74.5369 97.773 74.7374C98.0181 74.661 98.2663 74.5814 98.5114 74.5019C98.3395 74.6897 98.1645 74.8711 97.9831 75.043C98.4096 75.67 98.817 76.3352 99.2084 77.029C100.752 74.7597 100.634 70.6284 97.9035 67.8212C95.2363 64.9535 91.1146 64.6256 88.772 66.0547C89.6409 66.6022 90.4557 67.1783 91.2037 67.7766C91.5188 67.6843 91.8371 67.592 92.1522 67.4965L92.1554 67.4902Z" fill="#3C9E7C"/>
<path d="M88.5754 61.0162C88.2316 61.1022 87.8847 61.1786 87.5409 61.2518C87.4327 60.9399 87.3213 60.6311 87.2099 60.3256C87.3054 60.1728 87.4073 60.0232 87.5218 59.8832C87.3723 59.9023 87.2195 59.9214 87.0699 59.9405C86.9967 59.7463 86.9203 59.5522 86.8439 59.358C87.1654 59.0143 87.5155 58.696 87.8942 58.4318C87.3914 58.2249 86.8757 58.1836 86.3633 58.1963C86.2869 58.0149 86.2073 57.8366 86.1278 57.6584C86.7452 57.181 87.3977 56.7386 88.0979 56.4044C87.2545 56.3566 86.4238 56.4107 85.6122 56.5349C85.5931 56.4967 85.574 56.4585 85.5549 56.4203C85.4085 56.1084 85.2589 55.8028 85.1093 55.5005C85.2461 55.3922 85.3862 55.284 85.5326 55.1885C85.3353 55.1694 85.1411 55.1694 84.947 55.179C84.861 55.0103 84.7751 54.8448 84.686 54.6761C84.8292 54.5392 84.9788 54.4088 85.1347 54.2878C84.9279 54.3101 84.7274 54.3387 84.5237 54.3706C84.4886 54.3037 84.4536 54.2401 84.4186 54.1732C84.6287 53.9918 84.8356 53.8104 85.0424 53.6258C84.7496 53.6544 84.4632 53.6926 84.1799 53.7372C84.1322 53.6544 84.0908 53.5685 84.043 53.4857C84.4377 53.0529 84.861 52.6487 85.3289 52.2954C84.7528 52.4322 84.1926 52.6009 83.6484 52.8014C83.5529 52.6391 83.4574 52.48 83.3619 52.3176C83.903 51.7861 84.4823 51.2864 85.1157 50.8536C84.355 51.0573 83.6261 51.3183 82.9323 51.627C82.7667 51.366 82.5981 51.105 82.4198 50.844C82.6267 50.583 82.8368 50.3188 83.05 50.061C82.7413 50.182 82.4421 50.3125 82.1493 50.4493C81.5891 49.6441 80.9748 48.8388 80.3128 48.0431C83.7789 47.2283 88.7249 49.2908 90.8574 53.8995C93.0886 58.4636 91.5736 63.6039 88.7536 65.7777C88.4958 64.4696 88.1743 63.2187 87.7987 62.0347C88.0566 61.6974 88.3175 61.3536 88.5785 61.0162H88.5754Z" fill="#3C9E7C"/>
<path d="M91.2946 61.7516C90.9636 61.6275 90.6326 61.497 90.3079 61.3601C90.3971 61.0418 90.4798 60.7235 90.5594 60.4084C90.7249 60.3352 90.8936 60.2716 91.0654 60.2207C90.9286 60.1506 90.7949 60.0838 90.658 60.0138C90.7058 59.8101 90.7535 59.6064 90.8013 59.4059C91.2596 59.304 91.7275 59.2404 92.1921 59.2372C91.8961 58.782 91.4919 58.4542 91.0591 58.1773C91.0973 57.9863 91.1323 57.7922 91.1705 57.598C91.9503 57.5535 92.7364 57.5567 93.5035 57.6776C92.8319 57.162 92.1189 56.7355 91.3805 56.3822C91.3869 56.3408 91.3933 56.2994 91.3996 56.2549C91.4537 55.9143 91.5047 55.5801 91.5524 55.2428C91.7275 55.23 91.9025 55.2205 92.0776 55.2237C91.9248 55.0963 91.7657 54.9849 91.6002 54.8863C91.6256 54.6985 91.6479 54.5107 91.6702 54.3261C91.8643 54.2943 92.0617 54.272 92.259 54.2625C92.0776 54.1638 91.893 54.0715 91.7084 53.9855C91.7179 53.9123 91.7243 53.8391 91.7338 53.7628C92.0075 53.7309 92.2845 53.6991 92.5582 53.6641C92.3036 53.524 92.0426 53.3904 91.7816 53.2694C91.7911 53.1739 91.8007 53.0785 91.8102 52.983C92.3799 52.8493 92.9592 52.757 93.5417 52.7283C92.9879 52.5151 92.4309 52.34 91.8707 52.1968C91.8834 52.0122 91.8961 51.8244 91.9057 51.6366C92.6537 51.503 93.4112 51.4202 94.1782 51.417C93.4366 51.156 92.6855 50.9587 91.9407 50.8187C91.9503 50.5099 91.9598 50.198 91.963 49.8829C92.2844 49.7843 92.6027 49.6856 92.9242 49.5933C92.6027 49.5201 92.2813 49.4564 91.963 49.4055C91.9566 48.422 91.9025 47.4131 91.8102 46.3818C95.1299 47.6677 98.0421 52.165 97.1955 57.1747C96.4571 62.2004 92.3004 65.5837 88.7452 65.7842C89.2703 64.5588 89.7127 63.3462 90.0756 62.1558C90.4798 62.0221 90.8872 61.8884 91.2946 61.7579V61.7516Z" fill="#3C9E7C"/>
<path d="M86.6073 63.085C86.4227 63.2887 86.2381 63.486 86.0471 63.6834C85.8434 63.5306 85.6397 63.381 85.436 63.2346C85.4296 63.0946 85.4328 62.9545 85.4456 62.8177C85.3564 62.894 85.2705 62.9736 85.1814 63.05C85.0477 62.9577 84.9172 62.8654 84.7835 62.7763C84.8408 62.4198 84.9268 62.0633 85.0541 61.7323C84.6435 61.8183 84.2966 62.0124 83.9751 62.2448C83.8478 62.162 83.7205 62.0824 83.5932 62.0029C83.7809 61.43 84.0069 60.8666 84.3093 60.351C83.7491 60.6852 83.2431 61.0767 82.7784 61.5063C82.7497 61.4904 82.7211 61.4745 82.6924 61.4586C82.4633 61.3249 82.2373 61.1912 82.0081 61.0639C82.0495 60.9334 82.0909 60.8061 82.1418 60.682C82.0081 60.7552 81.884 60.838 81.7631 60.9303C81.6357 60.8602 81.5084 60.7902 81.3811 60.7202C81.4129 60.5706 81.4511 60.4242 81.5021 60.2778C81.3811 60.3796 81.2634 60.4879 81.1488 60.5929C81.0979 60.5674 81.0469 60.5388 80.996 60.5133C81.0501 60.3064 81.1042 60.0996 81.1583 59.8927C80.9833 60.0359 80.8178 60.1855 80.6554 60.3383C80.5886 60.3032 80.5249 60.2682 80.4581 60.2364C80.5249 59.7908 80.6204 59.3484 80.7636 58.9219C80.4549 59.2593 80.1685 59.6094 79.9107 59.9691C79.7802 59.9086 79.6497 59.8449 79.5192 59.7844C79.6369 59.2115 79.7897 58.6418 80.0061 58.0912C79.6083 58.5495 79.255 59.0301 78.9463 59.5266C78.7267 59.4312 78.507 59.3389 78.2811 59.2466C78.3002 58.9887 78.3224 58.7309 78.3447 58.4731C78.2015 58.6832 78.0646 58.8964 77.9373 59.1097C77.2307 58.836 76.4892 58.5877 75.7253 58.3649C77.5872 56.347 81.6357 55.529 84.9904 57.5533C88.3865 59.5044 89.6373 63.4415 88.7779 66.0482C88.0491 65.3257 87.3011 64.6637 86.55 64.0685C86.5691 63.7407 86.5882 63.4097 86.6105 63.0818L86.6073 63.085Z" fill="#3C9E7C"/>
<path d="M39.6597 86.2131C40.3217 86.2035 40.9806 86.1972 41.6426 86.1876C41.3848 78.5712 37.3776 71.6709 31.0693 67.6924C30.8752 67.9852 30.681 68.278 30.4869 68.5708C36.3369 72.6225 39.7265 79.2555 39.6597 86.2131Z" fill="#B06D00"/>
<path d="M29.6661 70.2706C29.7043 70.522 29.7393 70.7703 29.7712 71.0217C29.542 71.079 29.316 71.1395 29.09 71.2031C28.985 71.1267 28.8863 71.044 28.794 70.9549C28.8004 71.0631 28.8036 71.1713 28.81 71.2795C28.6667 71.3209 28.5235 71.3623 28.3803 71.4068C28.1543 71.1586 27.9506 70.888 27.7851 70.6016C27.6069 70.9453 27.5464 71.3113 27.5273 71.6805C27.3936 71.7251 27.2631 71.7697 27.1294 71.8174C26.8239 71.3495 26.5502 70.8594 26.3528 70.3374C26.2701 70.9358 26.2574 71.5309 26.2987 72.1166C26.2701 72.1261 26.2414 72.1389 26.2128 72.1484C25.9836 72.2343 25.7545 72.3203 25.5285 72.4126C25.4585 72.3076 25.3916 72.2025 25.3312 72.0911C25.3057 72.2312 25.293 72.368 25.2898 72.5081C25.1657 72.559 25.0415 72.6099 24.9174 72.664C24.8283 72.5526 24.7455 72.4412 24.6691 72.3203C24.6723 72.4667 24.6819 72.6163 24.6914 72.7595C24.6437 72.7818 24.5928 72.8009 24.545 72.8232C24.4272 72.664 24.3095 72.5049 24.1917 72.3457C24.1917 72.5558 24.2045 72.7627 24.2204 72.9664C24.1567 72.995 24.0931 73.0205 24.0326 73.0491C23.7493 72.7404 23.4851 72.4158 23.2623 72.0625C23.326 72.4826 23.4119 72.89 23.5201 73.2879C23.3992 73.3451 23.2783 73.4024 23.1605 73.4629C22.8136 73.046 22.4921 72.6035 22.2216 72.1261C22.3234 72.6799 22.4635 73.2146 22.6417 73.7271C22.4444 73.8289 22.2502 73.934 22.0529 74.0454C21.8778 73.8799 21.706 73.7175 21.5309 73.5488C21.5977 73.7748 21.6741 73.9976 21.7537 74.2141C21.1458 74.5642 20.5347 74.9556 19.9268 75.379C19.5544 72.8614 21.3208 69.4621 24.7328 68.2177C28.1193 66.9 31.6904 68.2909 33.0686 70.4297C32.1233 70.5347 31.2098 70.6907 30.3441 70.8848C30.1181 70.6811 29.8889 70.4743 29.6661 70.2674V70.2706Z" fill="#3C9E7C"/>
<path d="M31.022 71.7951C31.1557 71.9383 31.2862 72.0816 31.4135 72.2312C31.2925 72.368 31.1748 72.5049 31.057 72.6417C30.9584 72.6386 30.8565 72.629 30.761 72.6099C30.8119 72.6767 30.8597 72.7436 30.9106 72.8104C30.8374 72.8995 30.7642 72.9887 30.691 73.0778C30.4396 73.0173 30.1913 72.9346 29.9621 72.8232C29.9971 73.1192 30.1181 73.3802 30.2613 73.622C30.1945 73.708 30.1308 73.7939 30.064 73.8798C29.6661 73.7112 29.2778 73.517 28.9309 73.2688C29.1346 73.6889 29.386 74.074 29.6629 74.4273C29.6502 74.4464 29.6375 74.4655 29.6248 74.4846C29.5165 74.6405 29.4083 74.7933 29.3033 74.9461C29.2142 74.9079 29.1251 74.8697 29.0391 74.8283C29.0837 74.927 29.1346 75.0225 29.1919 75.1116C29.1346 75.1975 29.0773 75.2835 29.02 75.3726C28.915 75.3408 28.8131 75.3026 28.7145 75.2612C28.7813 75.3535 28.8482 75.4458 28.9182 75.5317C28.8959 75.5667 28.8736 75.6017 28.8513 75.6336C28.7081 75.5826 28.5649 75.5317 28.4185 75.4808C28.5108 75.6145 28.6063 75.7418 28.7049 75.8659C28.6763 75.9105 28.6476 75.955 28.619 75.9996C28.3039 75.9264 27.9952 75.8309 27.6992 75.7036C27.922 75.9423 28.1543 76.1683 28.393 76.3752C28.3421 76.4643 28.288 76.5534 28.2371 76.6425C27.836 76.5248 27.4414 76.3815 27.0594 76.1937C27.3618 76.5057 27.6833 76.7857 28.0206 77.0372C27.9411 77.1868 27.8583 77.3396 27.7819 77.4955C27.6005 77.4669 27.4159 77.435 27.2345 77.4032C27.3745 77.5178 27.5177 77.6292 27.6642 77.731C27.4254 78.218 27.2058 78.7304 27.0021 79.262C25.6749 77.8138 25.3375 74.8792 26.9799 72.6131C28.5744 70.3087 31.4549 69.6563 33.2595 70.4265C32.6993 70.9039 32.1837 71.3941 31.7159 71.8938C31.4835 71.862 31.248 71.8269 31.0156 71.7919L31.022 71.7951Z" fill="#3C9E7C"/>
<path d="M32.8911 66.8459C33.1425 66.8714 33.3971 66.8905 33.6486 66.9064C33.6931 66.6741 33.7377 66.4449 33.7886 66.2158C33.7059 66.1171 33.6168 66.0216 33.5245 65.9357C33.6327 65.9357 33.7409 65.9325 33.8523 65.9293C33.8841 65.7829 33.9191 65.6397 33.9541 65.4933C33.6931 65.2832 33.4131 65.0954 33.1171 64.9458C33.4512 64.7485 33.8109 64.6657 34.1769 64.6212C34.2119 64.4843 34.2501 64.3506 34.2883 64.217C33.8014 63.9432 33.2953 63.695 32.7669 63.5326C33.3589 63.4117 33.9509 63.364 34.5398 63.3703C34.5493 63.3417 34.5589 63.313 34.5684 63.2844C34.6416 63.0489 34.7148 62.8165 34.7912 62.5874C34.683 62.5237 34.5716 62.4632 34.4602 62.4091C34.5971 62.3773 34.7371 62.355 34.874 62.3423C34.9185 62.215 34.9599 62.0877 35.0045 61.9603C34.8899 61.8776 34.7689 61.8012 34.648 61.7344C34.7944 61.728 34.944 61.728 35.0872 61.7312C35.1063 61.6803 35.1222 61.6325 35.1413 61.5816C34.9758 61.4734 34.8103 61.3652 34.6448 61.2569C34.8549 61.2474 35.0617 61.2442 35.2654 61.2474C35.2909 61.1837 35.3132 61.1201 35.3355 61.0532C35.0108 60.7891 34.6703 60.5472 34.3042 60.3435C34.7276 60.3817 35.1413 60.4422 35.5455 60.5281C35.5965 60.404 35.6474 60.2798 35.6983 60.1557C35.2591 59.8342 34.8008 59.5414 34.3074 59.2995C34.8676 59.3664 35.4087 59.4746 35.9306 59.621C36.0198 59.4205 36.1153 59.2168 36.2107 59.0131C36.0357 58.8476 35.8606 58.6852 35.6856 58.5229C35.9147 58.577 36.1407 58.6375 36.3635 58.7043C36.6754 58.0773 37.0287 57.444 37.417 56.8106C34.8803 56.591 31.5925 58.5579 30.5581 62.0399C29.4473 65.4996 31.0514 68.9784 33.2666 70.2293C33.3144 69.2776 33.4131 68.3578 33.5563 67.4825C33.3399 67.2693 33.1202 67.056 32.9006 66.8428L32.8911 66.8459Z" fill="#3C9E7C"/>
<path d="M31.0405 67.645C31.2633 67.524 31.4829 67.3967 31.6993 67.2662C31.6039 67.0498 31.5116 66.8334 31.4256 66.6169C31.3015 66.5819 31.1742 66.5533 31.0469 66.5374C31.136 66.4737 31.2251 66.4101 31.3142 66.3496C31.2601 66.2095 31.206 66.0727 31.1519 65.9326C30.8177 65.9072 30.4803 65.9104 30.1525 65.9549C30.3148 65.6016 30.5663 65.3311 30.8432 65.0892C30.7954 64.9555 30.7509 64.825 30.7063 64.6913C30.1493 64.7391 29.5923 64.8218 29.064 64.9873C29.4841 64.5545 29.9456 64.1789 30.4326 63.8511C30.423 63.8224 30.4167 63.7938 30.4071 63.7651C30.3339 63.5296 30.2639 63.2973 30.1939 63.0649C30.0698 63.0745 29.9424 63.0872 29.8215 63.1063C29.917 63.0013 30.0188 62.9058 30.1239 62.8167C30.0889 62.6862 30.0507 62.5557 30.0156 62.4284C29.8756 62.4284 29.7324 62.4284 29.5923 62.4443C29.7101 62.3583 29.831 62.2724 29.952 62.1928C29.9393 62.1419 29.9265 62.091 29.9106 62.0401C29.7133 62.0464 29.5159 62.0496 29.3186 62.056C29.4841 61.9287 29.656 61.8109 29.8279 61.6963C29.8119 61.6295 29.7928 61.5626 29.7769 61.4958C29.36 61.4608 28.943 61.4544 28.5261 61.4958C28.8953 61.2889 29.2709 61.1075 29.6528 60.9484C29.6242 60.8179 29.5955 60.6874 29.5701 60.5569C29.029 60.541 28.4815 60.5569 27.9373 60.6365C28.437 60.3755 28.9462 60.159 29.4587 59.984C29.4205 59.7675 29.3823 59.5479 29.3473 59.3251C29.1117 59.2869 28.873 59.2519 28.6375 59.2201C28.8571 59.1342 29.0767 59.0578 29.2995 58.9878C29.204 58.2907 29.1372 57.5714 29.099 56.833C26.8838 58.0838 25.2828 61.5658 26.3968 65.0224C27.4344 68.5012 30.7254 70.4681 33.2589 70.2453C32.7624 69.4337 32.3232 68.6189 31.9444 67.8137C31.6452 67.7627 31.3429 67.7086 31.0405 67.6577V67.645Z" fill="#3C9E7C"/>
<path d="M34.4953 68.1063C34.6449 68.2305 34.7977 68.3514 34.9536 68.4724C35.081 68.3419 35.2114 68.2177 35.3419 68.0904C35.3324 67.9918 35.3165 67.8931 35.2942 67.7976C35.3642 67.8422 35.4342 67.8899 35.5043 67.9345C35.587 67.8549 35.673 67.7785 35.7557 67.6989C35.6793 67.4507 35.5807 67.2088 35.4565 66.9892C35.7557 67.0083 36.0231 67.1101 36.2745 67.2406C36.3573 67.1706 36.4368 67.1006 36.5196 67.0306C36.3286 66.6454 36.1122 66.2699 35.8416 65.9357C36.2713 66.1139 36.6723 66.3399 37.0447 66.5977C37.0638 66.5818 37.0829 66.5691 37.0988 66.5531C37.2453 66.4354 37.3948 66.3176 37.5413 66.203C37.4999 66.1171 37.4553 66.0312 37.4076 65.9452C37.5094 65.9834 37.6081 66.0312 37.7004 66.0821C37.7831 66.0184 37.8659 65.958 37.9487 65.8943C37.9105 65.7924 37.8691 65.6906 37.8182 65.5951C37.9136 65.6556 38.0091 65.7192 38.1014 65.7829C38.1333 65.7574 38.1683 65.7352 38.2001 65.7097C38.1396 65.5697 38.0791 65.4296 38.0219 65.2896C38.1587 65.3723 38.2924 65.4614 38.4229 65.5537C38.4674 65.5219 38.5088 65.4933 38.5534 65.4614C38.4611 65.1527 38.3465 64.8503 38.2001 64.5639C38.4515 64.7708 38.6902 64.9904 38.913 65.2164C38.999 65.1591 39.0849 65.1018 39.1709 65.0445C39.0308 64.6498 38.8621 64.2647 38.6521 63.8955C38.9799 64.1788 39.2791 64.4843 39.5496 64.8026C39.696 64.7135 39.8424 64.6244 39.992 64.5352C39.9506 64.3538 39.9093 64.1756 39.8679 63.9942C39.992 64.1278 40.1098 64.2647 40.2212 64.4016C40.6922 64.1342 41.1919 63.8828 41.7107 63.6472C40.1862 62.4123 37.2357 62.25 35.0714 64.026C32.8689 65.7543 32.3883 68.6697 33.2668 70.4266C33.7092 69.841 34.1675 69.2967 34.6385 68.797C34.5908 68.5679 34.5462 68.3355 34.4953 68.1063Z" fill="#3C9E7C"/>
<mask id="mask0_859_13194" style="mask-type:alpha" maskUnits="userSpaceOnUse" x="0" y="0" width="124" height="124">
<circle cx="62" cy="62" r="62" fill="#C9C6DF"/>
</mask>
<g mask="url(#mask0_859_13194)">
<path d="M100.922 95.4865C94.1495 89.5187 84.0886 86.5014 74.0883 85.3556C64.0879 84.2098 53.9252 84.7286 43.823 84.6841C30.242 84.6268 16.7056 83.5542 3.20412 82.3511C2.42116 84.2989 1.79096 86.2818 1.39311 88.3061C0.877497 90.9383 0.788379 93.6691 1.23079 96.3172C2.23974 96.3968 3.25823 96.4063 4.25127 96.3554C8.17566 96.1517 11.9823 95.1841 15.8939 94.8563C21.8617 94.3598 27.839 95.3655 33.794 95.9289C56.0163 98.0264 78.5856 94.3948 100.922 95.4833V95.4865Z" fill="#AFAACF"/>
<path d="M-2.74294 90.87C-3.17857 99.4175 -2.17599 108.268 0.924636 115.194C4.45768 123.08 11.0625 127.764 16.8346 124.814C20.6751 122.854 23.8078 117.893 27.7732 116.759C31.1429 115.794 34.6087 117.79 37.4883 120.761C40.3679 123.726 42.8183 127.63 45.4897 131.058C52.2931 139.774 61.3452 145.454 69.7566 141.811C75.7144 139.231 80.5479 132.412 86.0252 127.856C92.1336 122.777 98.9947 120.555 105.378 116.446C111.762 112.336 118.047 105.595 120.42 95.2464C120.747 93.815 120.991 89.5182 121.16 88.0406C121.16 88.0406 84.1949 90.8469 60.1068 90.87C35.6877 90.8935 -2.74294 86.1475 -2.74294 86.1475V90.87Z" fill="#756CAC"/>
</g>
<path opacity="0.4" d="M71.4423 30.1393H108.178C107.784 28.9203 106.746 27.924 105.505 27.5994C104.2 27.2588 102.777 27.6567 101.841 28.6274C101.523 27.367 100.428 26.3422 99.1518 26.1067C97.8755 25.8711 96.2618 26.4313 95.5171 27.4944C95.8672 26.6859 95.517 25.6802 94.8232 25.1359C94.1325 24.5916 93.1745 24.4612 92.312 24.6426C91.4494 24.824 90.5455 25.3842 89.8358 25.9093C91.7423 22.9684 91.3508 18.7385 88.9318 16.2018C86.5161 13.6619 82.3084 13.0635 79.2784 14.8268C76.2484 16.5901 74.8098 20.7659 75.8219 24.1238C74.7334 23.274 73.1579 23.1053 71.9166 23.7068C70.6753 24.3052 69.8223 25.642 69.8096 27.0233C69.7968 28.2487 70.4429 29.4518 71.4455 30.1425L71.4423 30.1393Z" fill="#EEEDF5"/>
<path opacity="0.4" d="M116.301 47.101C116.301 47.3651 116.514 47.5784 116.778 47.5784C117.042 47.5784 117.255 47.3651 117.255 47.101C117.255 46.8368 117.042 46.6235 116.778 46.6235C116.514 46.6235 116.301 46.8368 116.301 47.101Z" fill="#EDA940"/>
<path d="M76.4042 56.8687H42.4724V90.8005H76.4042V56.8687Z" fill="#F9C16E"/>
<path d="M76.4042 35.6201H42.4724V56.8717H76.4042V35.6201Z" fill="#F9C16E"/>
<path opacity="0.1" d="M76.4011 40.5789V35.6201H42.4724V36.8264L76.4011 40.5789Z" fill="black"/>
<path d="M63.7953 73.8359H55.0807V90.8003H63.7953V73.8359Z" fill="white"/>
<path d="M77.8912 54.8569H40.9802V56.8685H77.8912V54.8569Z" fill="#ED7D40"/>
<path opacity="0.2" d="M77.8912 54.8569H40.9802V56.8685H77.8912V54.8569Z" fill="#524797"/>
<path d="M78.2115 34.6113H40.6577V36.6229H78.2115V34.6113Z" fill="#ED7D40"/>
<path opacity="0.2" d="M78.2115 34.6113H40.6577V36.6229H78.2115V34.6113Z" fill="#524797"/>
<g opacity="0.1">
<path d="M59.005 75.4243H56.6688V81.8854H59.005V75.4243Z" fill="black"/>
<path d="M62.2002 75.4243H59.8641V81.8854H62.2002V75.4243Z" fill="black"/>
<path d="M62.2002 82.748H59.8641V89.2091H62.2002V82.748Z" fill="black"/>
<path d="M59.0049 82.748H56.6688V89.2091H59.0049V82.748Z" fill="black"/>
</g>
<path d="M63.483 82.3183C63.483 82.5539 63.292 82.748 63.0533 82.748C62.8146 82.748 62.6237 82.5571 62.6237 82.3183C62.6237 82.0796 62.8146 81.8887 63.0533 81.8887C63.292 81.8887 63.483 82.0796 63.483 82.3183Z" fill="#EDA940"/>
<path d="M53.3327 73.8359H43.9911V84.6638H53.3327V73.8359Z" fill="white"/>
<path d="M52.5372 74.6284H44.787V83.8649H52.5372V74.6284Z" fill="#CDC2FF"/>
<g opacity="0.4">
<path d="M44.7843 83.6548L52.5344 75.9079V74.6284H49.8832L44.7843 79.7304V83.6548Z" fill="white"/>
<path d="M52.5352 78.4668V77.1714L45.8417 83.8648H47.134L52.5352 78.4668Z" fill="white"/>
</g>
<path d="M53.3327 60.1504H43.9911V70.9783H53.3327V60.1504Z" fill="white"/>
<path d="M52.5372 60.9463H44.787V70.1828H52.5372V60.9463Z" fill="#CDC2FF"/>
<g opacity="0.4">
<path d="M44.7843 69.9695L52.5344 62.2226V60.9463H49.8832L44.7843 66.0451V69.9695Z" fill="white"/>
<path d="M52.5352 64.782V63.4897L45.8417 70.1832H47.134L52.5352 64.782Z" fill="white"/>
</g>
<path d="M74.8067 60.1499H65.4652V70.9778H74.8067V60.1499Z" fill="white"/>
<path d="M74.0103 60.9458H66.2601V70.1823H74.0103V60.9458Z" fill="#CDC2FF"/>
<g opacity="0.4">
<path d="M66.262 69.969L74.0121 62.2221V60.9458H71.3608L66.262 66.0446V69.969Z" fill="white"/>
<path d="M74.013 64.781V63.4888L67.3196 70.1822H68.6118L74.013 64.781Z" fill="white"/>
</g>
<path d="M64.1082 60.1499H54.7667V70.9778H64.1082V60.1499Z" fill="white"/>
<path d="M63.3123 60.9458H55.5622V70.1823H63.3123V60.9458Z" fill="#CDC2FF"/>
<g opacity="0.4">
<path d="M55.5622 69.969L63.3091 62.2221V60.9458H60.661L55.5622 66.0446V69.969Z" fill="white"/>
<path d="M63.3074 64.781V63.4888L56.614 70.1822H57.9062L63.3074 64.781Z" fill="white"/>
</g>
<path d="M53.3327 40.751H43.9911V51.5789H53.3327V40.751Z" fill="white"/>
<path d="M52.5372 41.5435H44.787V50.7799H52.5372V41.5435Z" fill="#CDC2FF"/>
<g opacity="0.4">
<path d="M44.7843 50.5699L52.5344 42.8229V41.5435H49.8832L44.7843 46.6455V50.5699Z" fill="white"/>
<path d="M52.5352 45.3818V44.0864L45.8417 50.7799H47.134L52.5352 45.3818Z" fill="white"/>
</g>
<path d="M74.8067 40.751H65.4652V51.5789H74.8067V40.751Z" fill="white"/>
<path d="M74.0103 41.5435H66.2601V50.7799H74.0103V41.5435Z" fill="#CDC2FF"/>
<g opacity="0.4">
<path d="M66.262 50.5699L74.0121 42.8229V41.5435H71.3608L66.262 46.6455V50.5699Z" fill="white"/>
<path d="M74.013 45.3818V44.0864L67.3196 50.7799H68.6118L74.013 45.3818Z" fill="white"/>
</g>
<path d="M64.1082 40.751H54.7667V51.5789H64.1082V40.751Z" fill="white"/>
<path d="M63.3123 41.5435H55.5622V50.7799H63.3123V41.5435Z" fill="#CDC2FF"/>
<g opacity="0.4">
<path d="M55.5622 50.5699L63.3091 42.8229V41.5435H60.661L55.5622 46.6455V50.5699Z" fill="white"/>
<path d="M63.3074 45.3818V44.0864L56.614 50.7799H57.9062L63.3074 45.3818Z" fill="white"/>
</g>
<path d="M74.8067 73.8359H65.4652V84.6638H74.8067V73.8359Z" fill="white"/>
<path d="M74.0103 74.6284H66.2601V83.8649H74.0103V74.6284Z" fill="#CDC2FF"/>
<g opacity="0.4">
<path d="M66.262 83.6548L74.0121 75.9079V74.6284H71.3608L66.262 79.7304V83.6548Z" fill="white"/>
<path d="M74.013 78.4668V77.1714L67.3196 83.8648H68.6118L74.013 78.4668Z" fill="white"/>
</g>
<path d="M75.9942 31.645H37.6701C37.6701 31.645 39.6721 32.5999 39.6721 34.6146H79.1993C79.1993 32.603 81.2013 31.645 81.2013 31.645H75.9942Z" fill="#F9C16E"/>
<path opacity="0.2" d="M70.6672 57.7759H67.3188V59.084H70.6672V57.7759Z" fill="white"/>
<path opacity="0.2" d="M56.4407 38.3574H53.0924V39.6656H56.4407V38.3574Z" fill="white"/>
<path opacity="0.2" d="M74.0113 71.5732H70.663V72.8814H74.0113V71.5732Z" fill="white"/>
<path opacity="0.2" d="M50.862 71.5732H47.5137V72.8814H50.862V71.5732Z" fill="white"/>
<path opacity="0.2" d="M55.006 57.7759H51.6577V59.084H55.006V57.7759Z" fill="white"/>
<path opacity="0.1" d="M76.4011 61.8306V56.8687H42.4724V58.0749L76.4011 61.8306Z" fill="black"/>
</svg>
