<svg width="230" height="47" viewBox="0 0 230 47" fill="none" xmlns="http://www.w3.org/2000/svg">
<path d="M15.3874 22.3499C15.3874 28.1707 12.7969 31.1167 7.67816 31.1167C2.55939 31.1167 0 28.1752 0 22.3499C0 16.5246 2.55939 13.552 7.67816 13.552C12.7969 13.552 15.3874 16.4624 15.3874 22.3499ZM4.31897 22.3499C4.35007 25.6469 5.4698 27.3087 7.64706 27.3087C9.82432 27.3087 10.9085 25.5802 10.944 22.221C10.944 18.924 9.85542 17.2933 7.68261 17.2933C5.50979 17.2933 4.32341 18.9907 4.32341 22.3499H4.31897Z" fill="#524797"/>
<path d="M22.1352 16.8492H21.6864V26.2247C21.6864 26.9268 22.1041 27.3134 22.935 27.3134H24.2458V30.5437C22.8683 30.6725 21.3665 30.6726 19.7668 30.5126C18.1672 30.3526 17.3985 29.3618 17.4296 27.4733V8.97998H19.638C20.7577 8.97998 21.6864 10.002 21.6864 11.1217V13.8099H24.2458V14.7386C24.2458 15.9561 23.3171 16.8492 22.1352 16.8492Z" fill="#524797"/>
<path d="M33.5873 31.1172C28.4686 30.9572 25.9092 27.9801 25.9092 22.2215C25.9092 16.4629 28.4997 13.5836 33.654 13.5525C39.0305 13.5525 41.5588 16.8495 41.2388 23.4701H30.2948C30.4548 26.0606 31.5745 27.3714 33.654 27.3714C34.6449 27.3714 35.5735 26.9537 36.4044 26.1539C36.7866 25.7362 37.2665 25.5452 37.8441 25.5452H40.9811C40.0525 29.1265 37.7508 31.1127 33.5918 31.1127L33.5873 31.1172ZM30.357 20.4308H36.7244C36.4667 18.1914 35.4136 17.0405 33.5873 17.0405C31.7611 17.0405 30.6769 18.1914 30.357 20.4308Z" fill="#524797"/>
<path d="M47.4706 11.0553V30.7306H43.2139V8.97583H45.4222C46.542 8.97583 47.4706 9.9356 47.4706 11.0553Z" fill="#524797"/>
<path d="M54.7032 18H54.1256V30.7347H49.8688V13.3611C49.7088 10.1308 51.5973 8.85107 54.7654 8.85107C55.503 8.85107 56.1739 8.88218 56.8138 8.97993V12.4991H55.6941C54.7032 12.4991 54.1567 12.9168 54.0633 13.7477V14.8674H56.8138V15.8583C56.8138 17.0091 55.854 18 54.7032 18Z" fill="#F6A227"/>
<path d="M61.1322 8.97534C62.5407 8.97534 63.2117 9.6774 63.1806 11.0548V12.3034H58.9238V8.97534H61.1322ZM61.1322 13.8053C62.5096 13.8053 63.1806 14.4762 63.1806 15.8537V30.7301H58.9238V13.8053H61.1322Z" fill="#F6A227"/>
<path d="M68.5232 33.7431C70.8604 33.7431 71.6913 32.5922 71.0203 30.3528L65.2617 13.8101H70.0917L73.4509 25.5539L76.3924 15.3164C76.6501 14.3255 77.3211 13.8145 78.4097 13.8145H81.3867L74.6995 33.6186C73.6775 36.4002 72.6511 37.36 69.1319 37.36C68.0433 37.36 67.4701 37.3289 67.3412 37.2311V33.7431H68.5232Z" fill="#F6A227"/>
<path d="M86.8248 18.2222H82.5681C83.0791 15.0852 85.2874 13.5522 89.1932 13.5522C93.8631 13.5522 96.2315 15.0897 96.3292 18.2222V23.9809C96.3292 28.6508 93.5121 30.7303 88.9399 31.0503C84.8742 31.3702 82.0615 29.4818 82.0615 25.7404C82.1593 21.6747 85.1008 20.5906 89.3887 20.1729C91.2104 19.9507 92.1391 19.4042 92.1391 18.4755C92.0414 17.5157 91.1482 17.0359 89.3887 17.0359C87.8868 17.0359 87.0514 17.418 86.8293 18.2178L86.8248 18.2222ZM92.2013 23.7898V22.2213C91.2104 22.639 90.0596 22.99 88.811 23.2433C87.1136 23.5632 86.2516 24.363 86.2516 25.6116C86.3494 26.9535 87.0514 27.5933 88.3933 27.5933C90.7617 27.5933 92.2013 26.1848 92.2013 23.7853V23.7898Z" fill="#F6A227"/>
<path d="M103.712 16.8492H103.264V26.2247C103.264 26.9268 103.681 27.3134 104.512 27.3134H105.823V30.5437C104.445 30.6725 102.944 30.6726 101.344 30.5126C99.7444 30.3526 98.9757 29.3618 99.0068 27.4733V8.97998H101.215C102.335 8.97998 103.264 10.002 103.264 11.1217V13.8099H105.823V14.7386C105.823 15.9561 104.894 16.8492 103.712 16.8492Z" fill="#F6A227"/>
<path d="M111.233 27.3755V30.7347H107.616V28.6241C107.616 27.7932 108.065 27.3755 108.994 27.3755H111.233Z" fill="#A9A9AA"/>
<path d="M121.217 31.1169C116.098 31.1169 113.472 28.1754 113.348 22.3501C113.348 16.5604 115.938 13.6456 121.155 13.5522C125.251 13.5522 127.682 15.374 128.42 19.0576H123.781C123.27 17.9068 122.372 17.298 121.03 17.298C118.791 17.298 117.671 18.9954 117.671 22.3546C117.671 25.7138 118.853 27.4111 121.221 27.38C122.212 27.38 123.079 26.9624 123.781 26.1626C124.198 25.7449 124.678 25.5538 125.22 25.5538H128.42C127.651 29.0108 125.158 31.2191 121.221 31.1214L121.217 31.1169Z" fill="#A9A9AA"/>
<path d="M145.913 22.3501C145.913 28.171 143.322 31.1169 138.204 31.1169C133.085 31.1169 130.525 28.1754 130.525 22.3501C130.525 16.5249 133.085 13.5522 138.204 13.5522C143.322 13.5522 145.913 16.4627 145.913 22.3501ZM134.844 22.3501C134.875 25.6471 135.995 27.3089 138.172 27.3089C140.35 27.3089 141.434 25.5805 141.469 22.2213C141.469 18.9243 140.381 17.2936 138.208 17.2936C136.035 17.2936 134.849 18.9909 134.849 22.3501H134.844Z" fill="#A9A9AA"/>
<path d="M152.281 19.9193V30.7345H147.962V20.7858C147.962 15.9558 150.392 13.5564 155.227 13.5564C157.404 13.5564 159.066 14.0363 160.283 14.9961C161.501 14.0674 163.163 13.6186 165.34 13.6186C170.17 13.6186 172.569 16.018 172.538 20.848V30.7967H170.33C168.921 30.6989 168.219 30.028 168.219 28.6861V19.9815C168.122 18.2219 167.162 17.3599 165.278 17.3599C163.394 17.3599 162.43 18.2219 162.398 19.9815V30.7301H158.111V19.9149C158.013 18.1553 157.053 17.2933 155.169 17.2933C153.285 17.2933 152.321 18.1553 152.29 19.9149L152.281 19.9193Z" fill="#A9A9AA"/>
<path d="M179.205 0C180.091 15.343 180.095 30.8681 179.205 46.2111C178.314 30.8681 178.318 15.343 179.205 0Z" fill="#A9A9AA"/>
<g clip-path="url(#clip0_991_19540)">
<path d="M204.306 32.3133L208.333 13.3371L213.214 10.4824L210.141 24.9645C209.534 27.8269 207.749 30.2997 205.223 31.7767L204.307 32.312L204.306 32.3133Z" fill="url(#paint0_linear_991_19540)"/>
<path style="mix-blend-mode:screen" d="M206.471 29.7309C207.009 28.7635 207.403 27.7264 207.641 26.657L207.967 25.033L208.305 23.4089C208.537 22.328 208.772 21.247 209.021 20.1699C209.267 19.0915 209.529 18.017 209.808 16.9451C209.627 18.0376 209.431 19.1264 209.217 20.2112C209.008 21.2973 208.784 22.3796 208.557 23.4618C208.323 24.5441 208.093 25.6225 207.835 26.7034C207.561 27.7857 207.094 28.8164 206.471 29.7309Z" fill="url(#paint1_linear_991_19540)"/>
<path d="M204.325 32.2178C206.08 30.7382 207.311 28.7091 207.795 26.4311L210.868 11.949L208.309 13.4466L204.325 32.219V32.2178Z" fill="url(#paint2_linear_991_19540)"/>
<path style="mix-blend-mode:multiply" d="M208.333 13.3371L207.855 15.5855C208.569 15.1895 209.307 14.8347 210.019 14.4361C211.053 13.8583 212.062 13.1643 212.746 12.2097C212.797 12.1375 212.846 12.0627 212.894 11.9866L213.214 10.4812L208.333 13.3358V13.3371Z" fill="url(#paint3_linear_991_19540)"/>
<path d="M203.531 17.689C204.084 16.6725 205.079 15.9205 206.135 15.3826C207.192 14.8434 208.327 14.4861 209.421 14.0294C210.515 13.5728 211.594 12.9975 212.384 12.1281C213.172 11.2586 213.623 10.0435 213.298 8.98706C212.452 9.84358 211.425 10.5311 210.292 10.962C209.158 11.3928 207.985 11.7153 206.873 12.2003C205.761 12.6853 204.689 13.3612 203.988 14.3274C203.286 15.2949 203.01 16.6867 203.531 17.689Z" fill="url(#paint4_linear_991_19540)"/>
<path style="mix-blend-mode:screen" d="M211.883 10.6047C211.34 11.0124 210.754 11.3632 210.161 11.6934C209.568 12.025 208.96 12.3281 208.365 12.6519C207.765 12.9666 207.177 13.3007 206.611 13.6709C206.327 13.8554 206.052 14.0514 205.787 14.2617C205.518 14.4681 205.264 14.6925 205.021 14.9286C205.244 14.6732 205.49 14.4371 205.747 14.2127C206.006 13.9921 206.277 13.7844 206.556 13.5897C207.114 13.1988 207.707 12.8634 208.305 12.5384L210.114 11.607C210.716 11.2949 211.31 10.9685 211.883 10.6047Z" fill="url(#paint5_linear_991_19540)"/>
<path d="M213.296 8.98853C213.093 9.64897 212.488 10.1869 211.882 10.6061C210.765 11.3762 209.529 11.958 208.331 12.5978C207.132 13.2376 205.948 13.9535 205.021 14.9287C204.289 15.6975 203.731 16.652 203.553 17.6479C204.11 16.652 205.092 15.9129 206.134 15.3815C207.19 14.8423 208.326 14.4849 209.419 14.0283C210.513 13.5717 211.593 12.9964 212.382 12.1269C213.171 11.2575 213.621 10.045 213.297 8.98853H213.296Z" fill="url(#paint6_linear_991_19540)"/>
<path d="M185.87 33.7813C187.1 32.8706 188.685 32.5649 190.215 32.561C191.745 32.5558 193.26 32.8254 194.786 32.9467C196.311 33.0679 197.891 33.0331 199.306 32.4514C200.721 31.8696 201.949 30.6506 202.192 29.1401C200.717 29.6702 199.135 29.8766 197.579 29.6986C196.023 29.5206 194.484 29.1839 192.921 29.0885C191.358 28.993 189.73 29.1543 188.359 29.9115C186.985 30.6648 185.855 32.214 185.87 33.7813Z" fill="url(#paint7_linear_991_19540)"/>
<path style="mix-blend-mode:screen" d="M199.619 30.2556C198.759 30.4323 197.879 30.5149 197.001 30.5549C196.122 30.5987 195.245 30.6 194.372 30.622C193.499 30.64 192.627 30.6787 191.761 30.7767C190.897 30.8774 190.036 31.036 189.199 31.3018C190.002 30.9419 190.863 30.7123 191.734 30.5768C192.606 30.4375 193.488 30.3859 194.367 30.364C196.125 30.3279 197.87 30.4078 199.619 30.2556Z" fill="url(#paint8_linear_991_19540)"/>
<path d="M202.19 29.1414C201.571 29.8315 200.561 30.1178 199.619 30.2559C197.884 30.5087 196.122 30.4532 194.369 30.4932C192.616 30.5332 190.836 30.6764 189.199 31.302C187.909 31.7948 186.708 32.6255 185.923 33.7451C187.144 32.8628 188.707 32.5649 190.216 32.5597C191.746 32.5545 193.261 32.8241 194.787 32.9454C196.312 33.0666 197.892 33.0318 199.307 32.45C200.721 31.8683 201.948 30.6506 202.192 29.1414H202.19Z" fill="url(#paint9_linear_991_19540)"/>
<path style="mix-blend-mode:multiply" d="M192.107 29.0613C190.803 29.0639 189.494 29.2819 188.359 29.9075C187.719 30.2596 187.133 30.7872 186.689 31.4064C186.342 32.1803 186.074 32.9788 185.89 33.767C185.897 33.7605 185.906 33.7554 185.914 33.7502C186.887 31.5767 189.184 30.3215 191.378 29.3722C191.621 29.2677 191.863 29.1645 192.106 29.0626L192.107 29.0613Z" fill="url(#paint10_linear_991_19540)"/>
<path d="M185.87 33.8532C186.414 31.4862 188.495 29.8235 190.523 28.4871C192.823 26.9714 195.242 25.6118 197.342 23.8278C199.44 22.0439 201.238 19.7529 201.829 17.0621C202.069 15.9683 202.09 14.7686 201.551 13.7883C200.942 12.6815 199.733 12.0456 198.537 11.6354C196.516 10.9401 194.248 10.7247 192.259 11.5089C190.27 12.2932 188.66 14.2307 188.691 16.3681C188.712 17.7355 189.584 19.197 190.937 19.3917C191.877 19.5272 192.881 18.8693 193.441 18.1018C192.742 17.5716 192.344 16.661 192.362 15.7851C192.38 14.9079 192.841 14.0514 193.561 13.5509C194.442 12.9382 195.776 12.9395 196.51 13.7225C197.303 14.5687 197.164 15.9167 196.815 17.0234C196.24 18.8487 195.232 20.5372 193.896 21.9071C192.342 23.5028 190.375 24.656 188.855 26.2839C187.036 28.2343 186 31.1869 185.87 33.8532Z" fill="url(#paint11_linear_991_19540)"/>
<path style="mix-blend-mode:screen" d="M194.253 12.0406C194.839 11.9129 195.451 11.9129 196.05 12.0058C196.647 12.1064 197.228 12.3205 197.751 12.6353C197.884 12.7101 198.005 12.8055 198.133 12.8894L198.311 13.0351C198.37 13.0841 198.43 13.1319 198.483 13.1873C198.592 13.2944 198.703 13.4015 198.799 13.5227C198.848 13.5821 198.901 13.6375 198.944 13.702L199.077 13.8917C199.424 14.405 199.62 15.0074 199.704 15.615C199.776 16.2264 199.733 16.8469 199.588 17.4403C199.441 18.0336 199.2 18.6025 198.879 19.1172C198.245 20.1582 197.346 20.994 196.379 21.6932C196.829 21.2998 197.27 20.896 197.661 20.4471C198.057 20.0047 198.414 19.5274 198.705 19.0153C198.996 18.5032 199.222 17.9562 199.349 17.3848C199.481 16.8146 199.52 16.2239 199.448 15.6473C199.373 15.0732 199.191 14.5082 198.872 14.0232C198.559 13.5369 198.137 13.1177 197.644 12.8029C196.66 12.1683 195.441 11.8922 194.253 12.0393V12.0406Z" fill="url(#paint12_linear_991_19540)"/>
<path d="M201.549 13.7883C200.94 12.6815 199.731 12.0456 198.535 11.6354C196.514 10.9401 194.246 10.7247 192.257 11.5089C191.429 11.8353 190.667 12.3616 190.062 13.0195C190.054 13.0285 190.046 13.0375 190.037 13.0453C189.991 13.0969 189.946 13.1485 189.901 13.2013C189.893 13.2104 189.885 13.2194 189.877 13.2284C189.724 13.4116 189.583 13.6038 189.455 13.8025C189.448 13.8154 189.44 13.8283 189.431 13.8411C189.397 13.894 189.365 13.9482 189.333 14.0024C189.324 14.0179 189.316 14.0321 189.307 14.0475C189.274 14.1056 189.241 14.1649 189.212 14.2256C189.208 14.2346 189.203 14.2423 189.199 14.2513C189.163 14.3223 189.129 14.3932 189.097 14.4655C189.096 14.4693 189.094 14.4719 189.093 14.4758C189.063 14.5416 189.036 14.6074 189.01 14.6732C189.003 14.6912 188.996 14.7106 188.989 14.7299C188.969 14.7828 188.95 14.8344 188.932 14.8873C188.924 14.9092 188.918 14.9299 188.91 14.9518C188.892 15.006 188.876 15.0601 188.86 15.1156C188.854 15.1337 188.849 15.1517 188.844 15.1698C188.825 15.2433 188.805 15.3168 188.79 15.3904C188.79 15.3955 188.787 15.402 188.786 15.4071C188.772 15.4742 188.759 15.5426 188.747 15.6109C188.743 15.6342 188.741 15.6574 188.737 15.6806C188.729 15.7322 188.723 15.7838 188.716 15.8354C188.714 15.8612 188.711 15.887 188.709 15.9141C188.703 15.9657 188.7 16.0186 188.697 16.0715C188.696 16.0947 188.694 16.1192 188.693 16.1424C188.691 16.2172 188.689 16.2933 188.689 16.3694C188.71 17.7368 189.582 19.1983 190.935 19.393C191.875 19.5285 192.879 18.8706 193.439 18.1031C190.557 17.5781 190.404 16.0405 190.794 14.828C191.158 13.6993 192.035 12.8131 193.134 12.3668C193.493 12.221 193.867 12.1113 194.253 12.0443C196.179 11.7089 198.351 12.6015 199.204 14.361C199.823 15.638 199.696 17.1911 199.103 18.4798C198.51 19.7684 197.494 20.8223 196.379 21.6982C195.263 22.574 194.035 23.2964 192.865 24.1C191.116 25.301 189.48 26.7005 188.2 28.3942C187.069 29.8918 186.225 31.632 185.895 33.474C185.885 33.6017 185.875 33.7294 185.868 33.8571C186.413 31.4901 188.493 29.8273 190.521 28.491C192.821 26.9753 195.24 25.6157 197.34 23.8317C199.438 22.0477 201.236 19.7568 201.827 17.066C202.067 15.9721 202.088 14.7725 201.549 13.7921V13.7883Z" fill="url(#paint13_linear_991_19540)"/>
<path d="M206.495 34.7771C207.258 35.7316 207.921 36.2089 208.478 36.2089C209.386 36.2089 210.364 35.4865 211.415 34.0379C212.178 32.9699 212.927 31.6283 213.66 30.003L214.568 27.8088L211.061 30.5538C209.977 31.3961 209.111 31.8205 208.459 31.8205C208.108 31.8205 207.829 31.7006 207.623 31.4619C207.416 31.2233 207.311 30.9511 207.311 30.6493C207.311 29.9669 207.9 28.8395 209.078 27.2709C210.254 25.7024 211.113 24.9207 211.656 24.9207C212.2 24.9207 212.469 25.1025 212.469 25.4715C212.469 25.6146 211.766 26.4389 210.358 27.9417C208.949 29.447 208.246 30.4609 208.246 30.9846C208.246 31.1897 208.381 31.2968 208.651 31.2968C209.162 31.2968 210.182 30.6996 211.717 29.5064C213.252 28.3132 214.409 27.3251 215.191 26.546C215.366 26.3409 215.611 26.0287 215.93 25.6146C216.232 25.2638 216.566 25.0909 216.931 25.0909C217.296 25.0909 217.482 25.2664 217.482 25.6146C217.482 25.6778 217.123 26.2441 216.407 27.3083C215.691 28.3764 215.316 28.9388 215.286 29.002C214.792 29.9566 214.036 31.3484 213.019 33.1788C211.473 35.662 209.932 36.9016 208.388 36.9016C207.877 36.9016 207.433 36.6823 207.051 36.245C206.67 35.8077 206.488 35.3163 206.501 34.7771H206.494H206.495Z" fill="#504992" stroke="white" stroke-width="1.33301" stroke-miterlimit="10"/>
<path d="M217.714 32.2942C216.776 32.2942 216.306 31.7601 216.306 30.6959C216.306 29.8368 216.776 28.6475 217.714 27.1293C218.652 25.611 219.408 24.8422 219.982 24.8254C220.141 24.8254 220.32 24.8886 220.519 25.0176C220.717 25.1441 220.817 25.273 220.817 25.3995C220.737 25.5117 220.641 25.6342 220.532 25.771C220.419 25.9064 220.299 26.0522 220.173 26.2121C220.046 26.3721 219.871 26.5965 219.649 26.8919C219.427 27.1873 219.212 27.4685 219.006 27.7407C217.812 29.286 217.215 30.3425 217.215 30.9165C217.215 31.4905 217.43 31.7756 217.859 31.7756C218.433 31.7756 219.225 31.3551 220.232 30.5089C221.244 29.6666 221.979 28.9906 222.441 28.4798C222.553 28.3212 222.656 28.2412 222.753 28.2412C222.816 28.2412 222.85 28.2876 222.85 28.3844C222.85 28.8617 222.127 29.6343 220.679 30.6985C219.23 31.7666 218.246 32.2968 217.718 32.2968H217.714V32.2942Z" fill="#504992" stroke="white" stroke-width="1.77735" stroke-miterlimit="10"/>
<path d="M222.991 30.8121C222.991 31.2894 223.252 31.528 223.78 31.528C224.308 31.528 224.98 31.2494 225.809 30.6921C226.637 30.1349 227.44 29.379 228.219 28.4244C228.411 28.169 228.561 28.0426 228.673 28.0426C228.785 28.0426 228.838 28.089 228.838 28.1858C228.838 28.2825 228.513 28.6966 227.86 29.4254C226.268 31.1758 224.94 32.0504 223.875 32.0504C223.352 32.0504 222.904 31.9279 222.539 31.6789C222.174 31.4338 221.988 31.0494 221.988 30.5322C221.988 30.0149 222.124 29.4151 222.393 28.7288C222.854 27.6479 223.593 26.2857 224.615 24.6475C226.477 21.6239 227.797 20.1121 228.576 20.1121C228.735 20.1121 228.897 20.1714 229.066 20.2914C229.231 20.4113 229.324 20.5429 229.341 20.6861C228.976 21.1801 228.27 22.1244 227.229 23.5265C226.188 24.9248 225.466 25.9335 225.067 26.5463C224.669 27.159 224.371 27.6169 224.172 27.9188C223.973 28.2206 223.828 28.4554 223.731 28.6218C223.634 28.7882 223.526 29.0062 223.396 29.2784C223.123 29.8188 222.991 30.3297 222.991 30.8069L222.987 30.8108L222.991 30.8121Z" fill="#504992" stroke="white" stroke-width="1.77735" stroke-miterlimit="10"/>
<path d="M206.495 34.7771C207.258 35.7316 207.921 36.2089 208.478 36.2089C209.386 36.2089 210.364 35.4865 211.415 34.0379C212.178 32.9699 212.927 31.6283 213.66 30.003L214.568 27.8088L211.061 30.5538C209.977 31.3961 209.111 31.8205 208.459 31.8205C208.108 31.8205 207.829 31.7006 207.623 31.4619C207.416 31.2233 207.311 30.9511 207.311 30.6493C207.311 29.9669 207.9 28.8395 209.078 27.2709C210.254 25.7024 211.113 24.9207 211.656 24.9207C212.2 24.9207 212.469 25.1025 212.469 25.4715C212.469 25.6146 211.766 26.4389 210.358 27.9417C208.949 29.447 208.246 30.4609 208.246 30.9846C208.246 31.1897 208.381 31.2968 208.651 31.2968C209.162 31.2968 210.182 30.6996 211.717 29.5064C213.252 28.3132 214.409 27.3251 215.191 26.546C215.366 26.3409 215.611 26.0287 215.93 25.6146C216.232 25.2638 216.566 25.0909 216.931 25.0909C217.296 25.0909 217.482 25.2664 217.482 25.6146C217.482 25.6778 217.123 26.2441 216.407 27.3083C215.691 28.3764 215.316 28.9388 215.286 29.002C214.792 29.9566 214.036 31.3484 213.019 33.1788C211.473 35.662 209.932 36.9016 208.388 36.9016C207.877 36.9016 207.433 36.6823 207.051 36.245C206.67 35.8077 206.488 35.3163 206.501 34.7771H206.494H206.495Z" fill="#504992"/>
<path d="M217.714 32.2942C216.776 32.2942 216.306 31.7601 216.306 30.6959C216.306 29.8368 216.776 28.6475 217.714 27.1293C218.652 25.611 219.408 24.8422 219.982 24.8254C220.141 24.8254 220.32 24.8886 220.519 25.0176C220.717 25.1441 220.817 25.273 220.817 25.3995C220.737 25.5117 220.641 25.6342 220.532 25.771C220.419 25.9064 220.299 26.0522 220.173 26.2121C220.046 26.3721 219.871 26.5965 219.649 26.8919C219.427 27.1873 219.212 27.4685 219.006 27.7407C217.812 29.286 217.215 30.3425 217.215 30.9165C217.215 31.4905 217.43 31.7756 217.859 31.7756C218.433 31.7756 219.225 31.3551 220.232 30.5089C221.244 29.6666 221.979 28.9906 222.441 28.4798C222.553 28.3212 222.656 28.2412 222.753 28.2412C222.816 28.2412 222.85 28.2876 222.85 28.3844C222.85 28.8617 222.127 29.6343 220.679 30.6985C219.23 31.7666 218.246 32.2968 217.718 32.2968H217.714V32.2942Z" fill="#504992"/>
<path d="M222.991 30.8121C222.991 31.2894 223.252 31.528 223.78 31.528C224.308 31.528 224.98 31.2494 225.809 30.6921C226.637 30.1349 227.44 29.379 228.219 28.4244C228.411 28.169 228.561 28.0426 228.673 28.0426C228.785 28.0426 228.838 28.089 228.838 28.1858C228.838 28.2825 228.513 28.6966 227.86 29.4254C226.268 31.1758 224.94 32.0504 223.875 32.0504C223.352 32.0504 222.904 31.9279 222.539 31.6789C222.174 31.4338 221.988 31.0494 221.988 30.5322C221.988 30.0149 222.124 29.4151 222.393 28.7288C222.854 27.6479 223.593 26.2857 224.615 24.6475C226.477 21.6239 227.797 20.1121 228.576 20.1121C228.735 20.1121 228.897 20.1714 229.066 20.2914C229.231 20.4113 229.324 20.5429 229.341 20.6861C228.976 21.1801 228.27 22.1244 227.229 23.5265C226.188 24.9248 225.466 25.9335 225.067 26.5463C224.669 27.159 224.371 27.6169 224.172 27.9188C223.973 28.2206 223.828 28.4554 223.731 28.6218C223.634 28.7882 223.526 29.0062 223.396 29.2784C223.123 29.8188 222.991 30.3297 222.991 30.8069L222.987 30.8108L222.991 30.8121Z" fill="#504992"/>
</g>
<defs>
<linearGradient id="paint0_linear_991_19540" x1="204.306" y1="21.3979" x2="213.214" y2="21.3979" gradientUnits="userSpaceOnUse">
<stop stop-color="#F6A227"/>
<stop offset="1" stop-color="#F6A227"/>
</linearGradient>
<linearGradient id="paint1_linear_991_19540" x1="209.932" y1="16.976" x2="206.846" y2="29.4575" gradientUnits="userSpaceOnUse">
<stop/>
<stop offset="0.04" stop-color="#050A0A"/>
<stop offset="0.11" stop-color="#142525"/>
<stop offset="0.2" stop-color="#2D5252"/>
<stop offset="0.31" stop-color="#4F8F91"/>
<stop offset="0.43" stop-color="#7ADDDF"/>
<stop offset="0.47" stop-color="#89F8FA"/>
<stop offset="0.54" stop-color="#74D3D4"/>
<stop offset="0.77" stop-color="#366263"/>
<stop offset="0.93" stop-color="#0F1B1B"/>
<stop offset="1"/>
</linearGradient>
<linearGradient id="paint2_linear_991_19540" x1="204.325" y1="22.084" x2="210.868" y2="22.084" gradientUnits="userSpaceOnUse">
<stop stop-color="#FFEEAD"/>
<stop offset="1" stop-color="#F6A227"/>
</linearGradient>
<linearGradient id="paint3_linear_991_19540" x1="207.855" y1="13.034" x2="213.214" y2="13.034" gradientUnits="userSpaceOnUse">
<stop stop-color="#FFEEAD"/>
<stop offset="1" stop-color="#F4C736"/>
</linearGradient>
<linearGradient id="paint4_linear_991_19540" x1="203.26" y1="13.3367" x2="213.403" y2="13.3367" gradientUnits="userSpaceOnUse">
<stop stop-color="#F6A227"/>
<stop offset="1" stop-color="#F6A227"/>
</linearGradient>
<linearGradient id="paint5_linear_991_19540" x1="205.022" y1="12.7667" x2="211.883" y2="12.7667" gradientUnits="userSpaceOnUse">
<stop/>
<stop offset="0.04" stop-color="#050A0A"/>
<stop offset="0.11" stop-color="#142525"/>
<stop offset="0.2" stop-color="#2D5252"/>
<stop offset="0.31" stop-color="#4F8F91"/>
<stop offset="0.43" stop-color="#7ADDDF"/>
<stop offset="0.47" stop-color="#89F8FA"/>
<stop offset="0.54" stop-color="#74D3D4"/>
<stop offset="0.77" stop-color="#366263"/>
<stop offset="0.93" stop-color="#0F1B1B"/>
<stop offset="1"/>
</linearGradient>
<linearGradient id="paint6_linear_991_19540" x1="203.553" y1="13.3176" x2="213.401" y2="13.3176" gradientUnits="userSpaceOnUse">
<stop stop-color="#F6A227"/>
<stop offset="1" stop-color="#FFEEAD"/>
</linearGradient>
<linearGradient id="paint7_linear_991_19540" x1="185.87" y1="31.4207" x2="202.191" y2="31.4207" gradientUnits="userSpaceOnUse">
<stop stop-color="#F6A227"/>
<stop offset="1" stop-color="#F6A227"/>
</linearGradient>
<linearGradient id="paint8_linear_991_19540" x1="189.198" y1="30.778" x2="199.619" y2="30.778" gradientUnits="userSpaceOnUse">
<stop/>
<stop offset="0.04" stop-color="#050A0A"/>
<stop offset="0.11" stop-color="#142525"/>
<stop offset="0.2" stop-color="#2D5252"/>
<stop offset="0.31" stop-color="#4F8F91"/>
<stop offset="0.43" stop-color="#7ADDDF"/>
<stop offset="0.47" stop-color="#89F8FA"/>
<stop offset="0.54" stop-color="#74D3D4"/>
<stop offset="0.77" stop-color="#366263"/>
<stop offset="0.93" stop-color="#0F1B1B"/>
<stop offset="1"/>
</linearGradient>
<linearGradient id="paint9_linear_991_19540" x1="185.922" y1="31.4439" x2="202.19" y2="31.4439" gradientUnits="userSpaceOnUse">
<stop stop-color="#FFEEAD"/>
<stop offset="1" stop-color="#F6A227"/>
</linearGradient>
<linearGradient id="paint10_linear_991_19540" x1="188.998" y1="33.767" x2="188.998" y2="29.0613" gradientUnits="userSpaceOnUse">
<stop stop-color="#FFEEAD"/>
<stop offset="1" stop-color="#F4C736"/>
</linearGradient>
<linearGradient id="paint11_linear_991_19540" x1="193.93" y1="33.8532" x2="193.93" y2="11.0097" gradientUnits="userSpaceOnUse">
<stop stop-color="#FFEEAD"/>
<stop offset="1" stop-color="#F6A227"/>
</linearGradient>
<linearGradient id="paint12_linear_991_19540" x1="195.972" y1="12.0806" x2="198.408" y2="19.6873" gradientUnits="userSpaceOnUse">
<stop/>
<stop offset="0.04" stop-color="#050A0A"/>
<stop offset="0.11" stop-color="#142525"/>
<stop offset="0.2" stop-color="#2D5252"/>
<stop offset="0.31" stop-color="#4F8F91"/>
<stop offset="0.43" stop-color="#7ADDDF"/>
<stop offset="0.47" stop-color="#89F8FA"/>
<stop offset="0.54" stop-color="#74D3D4"/>
<stop offset="0.77" stop-color="#366263"/>
<stop offset="0.93" stop-color="#0F1B1B"/>
<stop offset="1"/>
</linearGradient>
<linearGradient id="paint13_linear_991_19540" x1="185.869" y1="22.4308" x2="202.839" y2="22.5607" gradientUnits="userSpaceOnUse">
<stop stop-color="#F6A227"/>
<stop offset="0.595096" stop-color="#F6A227"/>
<stop offset="1" stop-color="#FFEEAD"/>
</linearGradient>
<clipPath id="clip0_991_19540">
<rect width="43.8089" height="28.238" fill="white" transform="translate(185.871 8.98657)"/>
</clipPath>
</defs>
</svg>
