<svg width="522" height="104" viewBox="0 0 522 104" fill="none" xmlns="http://www.w3.org/2000/svg">
<path d="M34.63 50.3C34.63 63.4 28.8 70.03 17.28 70.03C5.76 70.03 0 63.41 0 50.3C0 37.19 5.76 30.5 17.28 30.5C28.8 30.5 34.63 37.05 34.63 50.3ZM9.72 50.3C9.79 57.72 12.31 61.46 17.21 61.46C22.11 61.46 24.55 57.57 24.63 50.01C24.63 42.59 22.18 38.92 17.29 38.92C12.4 38.92 9.73 42.74 9.73 50.3H9.72Z" fill="#524797"/>
<path d="M49.8196 37.92H48.8096V59.02C48.8096 60.6 49.7496 61.47 51.6196 61.47H54.5696V68.74C51.4696 69.03 48.0896 69.03 44.4896 68.67C40.8896 68.31 39.1596 66.08 39.2296 61.83V20.21H44.1996C46.7196 20.21 48.8096 22.51 48.8096 25.03V31.08H54.5696V33.17C54.5696 35.91 52.4796 37.92 49.8196 37.92Z" fill="#524797"/>
<path d="M75.5896 70.03C64.0696 69.67 58.3096 62.97 58.3096 50.01C58.3096 37.05 64.1396 30.57 75.7396 30.5C87.8396 30.5 93.5296 37.92 92.8096 52.82H68.1796C68.5396 58.65 71.0596 61.6 75.7396 61.6C77.9696 61.6 80.0596 60.66 81.9296 58.86C82.7896 57.92 83.8696 57.49 85.1696 57.49H92.2296C90.1396 65.55 84.9596 70.02 75.5996 70.02L75.5896 70.03ZM68.3196 45.98H82.6496C82.0696 40.94 79.6996 38.35 75.5896 38.35C71.4796 38.35 69.0396 40.94 68.3196 45.98Z" fill="#524797"/>
<path d="M106.84 24.88V69.16H97.2598V20.2H102.23C104.75 20.2 106.84 22.36 106.84 24.88Z" fill="#524797"/>
<path d="M123.11 40.5099H121.81V69.1699H112.23V30.0699C111.87 22.7999 116.12 19.9199 123.25 19.9199C124.91 19.9199 126.42 19.9899 127.86 20.2099V28.1299H125.34C123.11 28.1299 121.88 29.0699 121.67 30.9399V33.4599H127.86V35.6899C127.86 38.2799 125.7 40.5099 123.11 40.5099Z" fill="#F6A227"/>
<path d="M137.58 20.2C140.75 20.2 142.26 21.78 142.19 24.88V27.69H132.61V20.2H137.58ZM137.58 31.07C140.68 31.07 142.19 32.58 142.19 35.68V69.16H132.61V31.07H137.58Z" fill="#F6A227"/>
<path d="M154.21 75.9398C159.47 75.9398 161.34 73.3498 159.83 68.3098L146.87 31.0798H157.74L165.3 57.5098L171.92 34.4698C172.5 32.2398 174.01 31.0898 176.46 31.0898H183.16L168.11 75.6598C165.81 81.9198 163.5 84.0798 155.58 84.0798C153.13 84.0798 151.84 84.0098 151.55 83.7898V75.9398H154.21Z" fill="#F6A227"/>
<path d="M195.401 41.01H185.821C186.971 33.95 191.941 30.5 200.731 30.5C211.241 30.5 216.571 33.96 216.791 41.01V53.97C216.791 64.48 210.451 69.16 200.161 69.88C191.011 70.6 184.681 66.35 184.681 57.93C184.901 48.78 191.521 46.34 201.171 45.4C205.271 44.9 207.361 43.67 207.361 41.58C207.141 39.42 205.131 38.34 201.171 38.34C197.791 38.34 195.911 39.2 195.411 41L195.401 41.01ZM207.501 53.54V50.01C205.271 50.95 202.681 51.74 199.871 52.31C196.051 53.03 194.111 54.83 194.111 57.64C194.331 60.66 195.911 62.1 198.931 62.1C204.261 62.1 207.501 58.93 207.501 53.53V53.54Z" fill="#F6A227"/>
<path d="M233.41 37.92H232.4V59.02C232.4 60.6 233.34 61.47 235.21 61.47H238.16V68.74C235.06 69.03 231.68 69.03 228.08 68.67C224.48 68.31 222.75 66.08 222.82 61.83V20.21H227.79C230.31 20.21 232.4 22.51 232.4 25.03V31.08H238.16V33.17C238.16 35.91 236.07 37.92 233.41 37.92Z" fill="#F6A227"/>
<path d="M250.33 61.6101V69.1701H242.19V64.4201C242.19 62.5501 243.2 61.6101 245.29 61.6101H250.33Z" fill="#A9A9AA"/>
<path d="M272.801 70.03C261.281 70.03 255.371 63.41 255.091 50.3C255.091 37.27 260.921 30.71 272.661 30.5C281.881 30.5 287.351 34.6 289.011 42.89H278.571C277.421 40.3 275.401 38.93 272.381 38.93C267.341 38.93 264.821 42.75 264.821 50.31C264.821 57.87 267.481 61.69 272.811 61.62C275.041 61.62 276.991 60.68 278.571 58.88C279.511 57.94 280.591 57.51 281.811 57.51H289.011C287.281 65.29 281.671 70.26 272.811 70.04L272.801 70.03Z" fill="#A9A9AA"/>
<path d="M328.38 50.3C328.38 63.4 322.55 70.03 311.03 70.03C299.51 70.03 293.75 63.41 293.75 50.3C293.75 37.19 299.51 30.5 311.03 30.5C322.55 30.5 328.38 37.05 328.38 50.3ZM303.47 50.3C303.54 57.72 306.06 61.46 310.96 61.46C315.86 61.46 318.3 57.57 318.38 50.01C318.38 42.59 315.93 38.92 311.04 38.92C306.15 38.92 303.48 42.74 303.48 50.3H303.47Z" fill="#A9A9AA"/>
<path d="M342.71 44.83V69.17H332.99V46.78C332.99 35.91 338.46 30.51 349.34 30.51C354.24 30.51 357.98 31.59 360.72 33.75C363.46 31.66 367.2 30.65 372.1 30.65C382.97 30.65 388.37 36.05 388.3 46.92V69.31H383.33C380.16 69.09 378.58 67.58 378.58 64.56V44.97C378.36 41.01 376.2 39.07 371.96 39.07C367.72 39.07 365.55 41.01 365.48 44.97V69.16H355.83V44.82C355.61 40.86 353.45 38.92 349.21 38.92C344.97 38.92 342.8 40.86 342.73 44.82L342.71 44.83Z" fill="#A9A9AA"/>
<path d="M405.801 0C407.796 34.53 407.806 69.47 405.801 104C403.796 69.47 403.806 34.53 405.801 0Z" fill="#A9A9AA"/>
<g clip-path="url(#clip0_943_24449)">
<path d="M464.794 72.7231L473.857 30.0163L484.842 23.5918L477.927 56.1844C476.56 62.6263 472.542 68.1914 466.858 71.5154L464.797 72.7202L464.794 72.7231Z" fill="url(#paint0_linear_943_24449)"/>
<path style="mix-blend-mode:screen" d="M469.67 66.9113C470.88 64.734 471.769 62.4 472.303 59.9933L473.037 56.3384L473.798 52.6834C474.321 50.2507 474.849 47.8179 475.409 45.3939C475.964 42.9669 476.553 40.5487 477.18 38.1362C476.774 40.5951 476.332 43.0453 475.851 45.4868C475.38 47.9311 474.875 50.3668 474.364 52.8025C473.839 55.2381 473.322 57.6651 472.741 60.0978C472.123 62.5335 471.072 64.8531 469.67 66.9113Z" fill="url(#paint1_linear_943_24449)"/>
<path d="M464.84 72.5085C468.788 69.1787 471.56 64.6122 472.649 59.4854L479.564 26.8928L473.804 30.2633L464.84 72.5114V72.5085Z" fill="url(#paint2_linear_943_24449)"/>
<path style="mix-blend-mode:multiply" d="M473.857 30.0162L472.783 35.0763C474.389 34.185 476.049 33.3867 477.652 32.4896C479.98 31.1891 482.25 29.6272 483.789 27.479C483.905 27.3164 484.015 27.148 484.123 26.9767L484.842 23.5889L473.857 30.0133V30.0162Z" fill="url(#paint3_linear_943_24449)"/>
<path d="M463.052 39.8113C464.297 37.5237 466.535 35.8312 468.913 34.6206C471.29 33.4072 473.845 32.603 476.307 31.5753C478.769 30.5477 481.199 29.2529 482.975 27.2962C484.749 25.3396 485.765 22.6049 485.033 20.2273C483.129 22.1549 480.818 23.7023 478.266 24.6719C475.715 25.6415 473.076 26.3673 470.573 27.4588C468.071 28.5504 465.658 30.0716 464.079 32.2459C462.5 34.4232 461.879 37.5556 463.052 39.8113Z" fill="url(#paint4_linear_943_24449)"/>
<path style="mix-blend-mode:screen" d="M481.85 23.8679C480.627 24.7853 479.309 25.5749 477.974 26.3181C476.639 27.0642 475.271 27.7464 473.933 28.4751C472.583 29.1834 471.259 29.9353 469.985 30.7685C469.346 31.1836 468.728 31.6249 468.13 32.0981C467.526 32.5626 466.954 33.0677 466.405 33.599C466.908 33.0242 467.462 32.4929 468.04 31.9878C468.623 31.4913 469.233 31.024 469.86 30.5856C471.117 29.706 472.452 28.9512 473.796 28.2196L477.869 26.1236C479.222 25.4211 480.561 24.6866 481.85 23.8679Z" fill="url(#paint5_linear_943_24449)"/>
<path d="M485.03 20.2302C484.575 21.7166 483.213 22.9272 481.849 23.8707C479.334 25.6038 476.553 26.9131 473.856 28.353C471.159 29.7929 468.494 31.4041 466.407 33.5988C464.761 35.329 463.504 37.4773 463.104 39.7184C464.358 37.4773 466.567 35.8138 468.913 34.6178C471.29 33.4043 473.845 32.6001 476.307 31.5725C478.768 30.5448 481.198 29.25 482.975 27.2934C484.749 25.3367 485.762 22.6078 485.033 20.2302H485.03Z" fill="url(#paint6_linear_943_24449)"/>
<path d="M423.306 76.027C426.073 73.9774 429.64 73.2894 433.084 73.2807C436.527 73.2691 439.938 73.8758 443.372 74.1487C446.803 74.4216 450.36 74.3432 453.544 73.0339C456.729 71.7246 459.493 68.9813 460.038 65.5818C456.72 66.7749 453.158 67.2394 449.657 66.8388C446.156 66.4382 442.693 65.6805 439.174 65.4656C435.656 65.2508 431.992 65.6137 428.906 67.3178C425.814 69.0132 423.271 72.4998 423.306 76.027Z" fill="url(#paint7_linear_943_24449)"/>
<path style="mix-blend-mode:screen" d="M454.246 68.093C452.309 68.4907 450.33 68.6765 448.353 68.7665C446.376 68.8652 444.402 68.8681 442.436 68.9175C440.471 68.9581 438.508 69.0452 436.56 69.2658C434.615 69.4923 432.679 69.8494 430.795 70.4474C432.601 69.6374 434.54 69.1207 436.499 68.8159C438.462 68.5023 440.448 68.3862 442.425 68.3369C446.381 68.2556 450.309 68.4356 454.246 68.093Z" fill="url(#paint8_linear_943_24449)"/>
<path d="M460.032 65.5847C458.639 67.1379 456.366 67.7823 454.247 68.093C450.342 68.662 446.376 68.5371 442.431 68.6271C438.486 68.7171 434.48 69.0394 430.796 70.4473C427.893 71.5563 425.19 73.4259 423.422 75.9457C426.171 73.96 429.687 73.2894 433.083 73.2778C436.526 73.2662 439.937 73.8729 443.372 74.1458C446.803 74.4187 450.359 74.3403 453.544 73.0311C456.726 71.7218 459.487 68.9813 460.035 65.5847H460.032Z" fill="url(#paint9_linear_943_24449)"/>
<path style="mix-blend-mode:multiply" d="M437.338 65.4048C434.403 65.4106 431.457 65.9012 428.902 67.3092C427.462 68.1017 426.144 69.2891 425.146 70.6825C424.365 72.4244 423.761 74.2214 423.346 75.9951C423.363 75.9806 423.383 75.969 423.401 75.9574C425.59 71.0657 430.76 68.2411 435.698 66.1044C436.244 65.8693 436.79 65.637 437.336 65.4077L437.338 65.4048Z" fill="url(#paint10_linear_943_24449)"/>
<path d="M423.3 76.1896C424.525 70.8625 429.208 67.1205 433.771 64.1129C438.947 60.7018 444.39 57.642 449.117 53.6271C453.84 49.6122 457.887 44.4563 459.216 38.4006C459.756 35.9388 459.803 33.2389 458.589 31.0326C457.219 28.5418 454.499 27.1106 451.808 26.1874C447.259 24.6227 442.155 24.1378 437.679 25.9029C433.202 27.668 429.579 32.0283 429.649 36.8387C429.695 39.9159 431.658 43.2051 434.703 43.6435C436.819 43.9483 439.078 42.4677 440.338 40.7404C438.764 39.5473 437.87 37.4977 437.911 35.5265C437.952 33.5525 438.988 31.6248 440.608 30.4984C442.591 29.1195 445.592 29.1224 447.244 30.8845C449.03 32.7889 448.716 35.8226 447.932 38.3135C446.637 42.4213 444.37 46.2214 441.363 49.3044C437.864 52.8955 433.437 55.4908 430.017 59.1545C425.924 63.5439 423.593 70.189 423.3 76.1896Z" fill="url(#paint11_linear_943_24449)"/>
<path style="mix-blend-mode:screen" d="M442.169 27.0991C443.487 26.8117 444.866 26.8117 446.213 27.0207C447.557 27.2471 448.863 27.729 450.042 28.4374C450.341 28.6058 450.614 28.8206 450.901 29.0093L451.302 29.3373C451.435 29.4476 451.569 29.5551 451.688 29.6799C451.935 29.9208 452.184 30.1618 452.399 30.4347C452.51 30.5682 452.629 30.6931 452.727 30.8382L453.026 31.265C453.807 32.4204 454.249 33.7761 454.437 35.1434C454.6 36.5195 454.501 37.9159 454.176 39.2513C453.845 40.5867 453.302 41.8669 452.579 43.0252C451.154 45.368 449.13 47.2492 446.953 48.8226C447.966 47.9372 448.959 47.0285 449.839 46.0183C450.73 45.0225 451.534 43.9484 452.187 42.7959C452.843 41.6434 453.352 40.4125 453.639 39.1264C453.935 37.8433 454.022 36.5137 453.86 35.216C453.691 33.9242 453.282 32.6526 452.565 31.5611C451.859 30.4666 450.91 29.5231 449.801 28.8148C447.586 27.3865 444.843 26.7652 442.169 27.0962V27.0991Z" fill="url(#paint12_linear_943_24449)"/>
<path d="M458.586 31.0326C457.216 28.5418 454.496 27.1106 451.805 26.1874C447.256 24.6227 442.152 24.1378 437.676 25.9029C435.812 26.6374 434.096 27.8218 432.735 29.3024C432.717 29.3227 432.7 29.343 432.68 29.3604C432.575 29.4766 432.473 29.5927 432.372 29.7117C432.354 29.732 432.337 29.7524 432.32 29.7727C431.974 30.1849 431.658 30.6175 431.37 31.0645C431.353 31.0936 431.335 31.1226 431.315 31.1516C431.24 31.2706 431.167 31.3926 431.094 31.5145C431.074 31.5493 431.057 31.5813 431.036 31.6161C430.961 31.7468 430.888 31.8803 430.822 32.0167C430.813 32.0371 430.801 32.0545 430.793 32.0748C430.711 32.2345 430.636 32.3941 430.563 32.5567C430.56 32.5654 430.557 32.5712 430.555 32.5799C430.488 32.728 430.427 32.876 430.369 33.0241C430.351 33.0647 430.337 33.1083 430.319 33.1518C430.276 33.2709 430.232 33.387 430.192 33.506C430.174 33.5554 430.16 33.6018 430.142 33.6512C430.102 33.7731 430.067 33.895 430.029 34.0198C430.017 34.0605 430.006 34.1011 429.994 34.1418C429.951 34.3072 429.907 34.4727 429.872 34.6382C429.872 34.6498 429.866 34.6643 429.864 34.6759C429.832 34.8269 429.803 34.9808 429.776 35.1346C429.768 35.1869 429.762 35.2391 429.753 35.2914C429.736 35.4075 429.721 35.5236 429.707 35.6397C429.701 35.6978 429.695 35.7559 429.689 35.8168C429.678 35.933 429.669 36.052 429.663 36.171C429.66 36.2233 429.657 36.2784 429.655 36.3307C429.649 36.4991 429.646 36.6703 429.646 36.8416C429.692 39.9189 431.655 43.208 434.7 43.6464C436.816 43.9512 439.075 42.4706 440.335 40.7433C433.849 39.5618 433.504 36.1013 434.384 33.3725C435.202 30.8323 437.176 28.8379 439.65 27.8334C440.457 27.5054 441.299 27.2586 442.167 27.1077C446.501 26.3529 451.39 28.3618 453.309 32.3216C454.702 35.1956 454.418 38.6909 453.082 41.591C451.747 44.4912 449.462 46.863 446.951 48.8341C444.44 50.8053 441.676 52.431 439.043 54.2396C435.107 56.9424 431.425 60.0922 428.546 63.9039C426 67.2743 424.101 71.1906 423.358 75.3361C423.335 75.6235 423.311 75.9109 423.297 76.1983C424.522 70.8712 429.205 67.1292 433.768 64.1216C438.944 60.7105 444.388 57.6507 449.114 53.6358C453.837 49.6209 457.884 44.465 459.213 38.4093C459.753 35.9475 459.8 33.2476 458.586 31.0413V31.0326Z" fill="url(#paint13_linear_943_24449)"/>
<path d="M469.721 78.2682C471.436 80.4164 472.929 81.4906 474.183 81.4906C476.226 81.4906 478.427 79.8649 480.793 76.6047C482.509 74.201 484.195 71.1818 485.844 67.524L487.888 62.5859L479.995 68.7636C477.556 70.6593 475.608 71.6144 474.139 71.6144C473.349 71.6144 472.722 71.3444 472.258 70.8073C471.793 70.2703 471.555 69.6577 471.555 68.9784C471.555 67.4427 472.882 64.9054 475.533 61.3753C478.18 57.8452 480.114 56.0859 481.336 56.0859C482.558 56.0859 483.165 56.4953 483.165 57.3255C483.165 57.6478 481.583 59.5028 478.412 62.8849C475.242 66.2728 473.66 68.5546 473.66 69.7332C473.66 70.1948 473.965 70.4357 474.572 70.4357C475.721 70.4357 478.018 69.0916 481.472 66.4063C484.927 63.721 487.531 61.4972 489.29 59.7438C489.685 59.2822 490.237 58.5797 490.954 57.6478C491.633 56.8582 492.385 56.4691 493.206 56.4691C494.028 56.4691 494.446 56.864 494.446 57.6478C494.446 57.79 493.639 59.0645 492.028 61.4595C490.417 63.8632 489.572 65.129 489.505 65.2712C488.393 67.4195 486.692 70.5519 484.401 74.6713C480.924 80.2597 477.454 83.0495 473.979 83.0495C472.83 83.0495 471.831 82.556 470.972 81.5719C470.113 80.5877 469.703 79.4817 469.732 78.2682H469.718H469.721Z" fill="#504992" stroke="white" stroke-width="3" stroke-miterlimit="10"/>
<path d="M494.969 72.6795C492.858 72.6795 491.799 71.4777 491.799 69.0827C491.799 67.1492 492.858 64.4726 494.969 61.0557C497.079 57.6388 498.781 55.9086 500.073 55.8708C500.43 55.8708 500.833 56.0131 501.28 56.3034C501.727 56.5879 501.951 56.8782 501.951 57.1627C501.771 57.4153 501.556 57.6911 501.309 57.9988C501.057 58.3036 500.787 58.6317 500.502 58.9916C500.218 59.3516 499.823 59.8567 499.324 60.5215C498.824 61.1863 498.339 61.8192 497.875 62.4318C495.19 65.9096 493.845 68.2872 493.845 69.5791C493.845 70.8709 494.33 71.5125 495.294 71.5125C496.586 71.5125 498.368 70.5661 500.636 68.6617C502.912 66.766 504.566 65.2448 505.606 64.0952C505.858 63.7381 506.091 63.5581 506.308 63.5581C506.451 63.5581 506.526 63.6627 506.526 63.8804C506.526 64.9545 504.9 66.6934 501.64 69.0885C498.38 71.4922 496.165 72.6853 494.978 72.6853H494.969V72.6795Z" fill="#504992" stroke="white" stroke-width="4" stroke-miterlimit="10"/>
<path d="M506.845 69.344C506.845 70.4182 507.434 70.9552 508.621 70.9552C509.809 70.9552 511.321 70.3282 513.188 69.074C515.051 67.8199 516.857 66.1187 518.611 63.9705C519.043 63.3957 519.38 63.1112 519.632 63.1112C519.885 63.1112 520.004 63.2157 520.004 63.4334C520.004 63.6511 519.273 64.583 517.804 66.2232C514.221 70.1627 511.231 72.131 508.836 72.131C507.657 72.131 506.65 71.8552 505.828 71.2949C505.007 70.7433 504.589 69.8782 504.589 68.7141C504.589 67.5499 504.894 66.2 505.5 64.6556C506.537 62.2228 508.2 59.1572 510.499 55.4703C514.691 48.6656 517.661 45.2632 519.415 45.2632C519.772 45.2632 520.138 45.3967 520.518 45.6667C520.89 45.9367 521.099 46.2328 521.136 46.555C520.315 47.6669 518.727 49.7919 516.384 52.9476C514.041 56.0945 512.416 58.3647 511.518 59.7436C510.621 61.1226 509.951 62.1532 509.504 62.8325C509.057 63.5118 508.729 64.0401 508.511 64.4146C508.293 64.7891 508.049 65.2797 507.756 65.8923C507.144 67.1087 506.845 68.2583 506.845 69.3324L506.836 69.3411L506.845 69.344Z" fill="#504992" stroke="white" stroke-width="4" stroke-miterlimit="10"/>
<path d="M469.721 78.2682C471.436 80.4164 472.929 81.4906 474.183 81.4906C476.226 81.4906 478.427 79.8649 480.793 76.6047C482.509 74.201 484.195 71.1818 485.844 67.524L487.888 62.5859L479.995 68.7636C477.556 70.6593 475.608 71.6144 474.139 71.6144C473.349 71.6144 472.722 71.3444 472.258 70.8073C471.793 70.2703 471.555 69.6577 471.555 68.9784C471.555 67.4427 472.882 64.9054 475.533 61.3753C478.18 57.8452 480.114 56.0859 481.336 56.0859C482.558 56.0859 483.165 56.4953 483.165 57.3255C483.165 57.6478 481.583 59.5028 478.412 62.8849C475.242 66.2728 473.66 68.5546 473.66 69.7332C473.66 70.1948 473.965 70.4357 474.572 70.4357C475.721 70.4357 478.018 69.0916 481.472 66.4063C484.927 63.721 487.531 61.4972 489.29 59.7438C489.685 59.2822 490.237 58.5797 490.954 57.6478C491.633 56.8582 492.385 56.4691 493.206 56.4691C494.028 56.4691 494.446 56.864 494.446 57.6478C494.446 57.79 493.639 59.0645 492.028 61.4595C490.417 63.8632 489.572 65.129 489.505 65.2712C488.393 67.4195 486.692 70.5519 484.401 74.6713C480.924 80.2597 477.454 83.0495 473.979 83.0495C472.83 83.0495 471.831 82.556 470.972 81.5719C470.113 80.5877 469.703 79.4817 469.732 78.2682H469.718H469.721Z" fill="#504992"/>
<path d="M494.969 72.6795C492.858 72.6795 491.799 71.4777 491.799 69.0827C491.799 67.1492 492.858 64.4726 494.969 61.0557C497.079 57.6388 498.781 55.9086 500.073 55.8708C500.43 55.8708 500.833 56.0131 501.28 56.3034C501.727 56.5879 501.951 56.8782 501.951 57.1627C501.771 57.4153 501.556 57.6911 501.309 57.9988C501.057 58.3036 500.787 58.6317 500.502 58.9916C500.218 59.3516 499.823 59.8567 499.324 60.5215C498.824 61.1863 498.339 61.8192 497.875 62.4318C495.19 65.9096 493.845 68.2872 493.845 69.5791C493.845 70.8709 494.33 71.5125 495.294 71.5125C496.586 71.5125 498.368 70.5661 500.636 68.6617C502.912 66.766 504.566 65.2448 505.606 64.0952C505.858 63.7381 506.091 63.5581 506.308 63.5581C506.451 63.5581 506.526 63.6627 506.526 63.8804C506.526 64.9545 504.9 66.6934 501.64 69.0885C498.38 71.4922 496.165 72.6853 494.978 72.6853H494.969V72.6795Z" fill="#504992"/>
<path d="M506.845 69.344C506.845 70.4182 507.434 70.9552 508.621 70.9552C509.809 70.9552 511.321 70.3282 513.188 69.074C515.051 67.8199 516.857 66.1187 518.611 63.9705C519.043 63.3957 519.38 63.1112 519.632 63.1112C519.885 63.1112 520.004 63.2157 520.004 63.4334C520.004 63.6511 519.273 64.583 517.804 66.2232C514.221 70.1627 511.231 72.131 508.836 72.131C507.657 72.131 506.65 71.8552 505.828 71.2949C505.007 70.7433 504.589 69.8782 504.589 68.7141C504.589 67.5499 504.894 66.2 505.5 64.6556C506.537 62.2228 508.2 59.1572 510.499 55.4703C514.691 48.6656 517.661 45.2632 519.415 45.2632C519.772 45.2632 520.138 45.3967 520.518 45.6667C520.89 45.9367 521.099 46.2328 521.136 46.555C520.315 47.6669 518.727 49.7919 516.384 52.9476C514.041 56.0945 512.416 58.3647 511.518 59.7436C510.621 61.1226 509.951 62.1532 509.504 62.8325C509.057 63.5118 508.729 64.0401 508.511 64.4146C508.293 64.7891 508.049 65.2797 507.756 65.8923C507.144 67.1087 506.845 68.2583 506.845 69.3324L506.836 69.3411L506.845 69.344Z" fill="#504992"/>
</g>
<defs>
<linearGradient id="paint0_linear_943_24449" x1="464.794" y1="48.1574" x2="484.842" y2="48.1574" gradientUnits="userSpaceOnUse">
<stop stop-color="#F6A227"/>
<stop offset="1" stop-color="#F6A227"/>
</linearGradient>
<linearGradient id="paint1_linear_943_24449" x1="477.459" y1="38.2059" x2="470.515" y2="66.2959" gradientUnits="userSpaceOnUse">
<stop/>
<stop offset="0.04" stop-color="#050A0A"/>
<stop offset="0.11" stop-color="#142525"/>
<stop offset="0.2" stop-color="#2D5252"/>
<stop offset="0.31" stop-color="#4F8F91"/>
<stop offset="0.43" stop-color="#7ADDDF"/>
<stop offset="0.47" stop-color="#89F8FA"/>
<stop offset="0.54" stop-color="#74D3D4"/>
<stop offset="0.77" stop-color="#366263"/>
<stop offset="0.93" stop-color="#0F1B1B"/>
<stop offset="1"/>
</linearGradient>
<linearGradient id="paint2_linear_943_24449" x1="464.84" y1="49.7021" x2="479.564" y2="49.7021" gradientUnits="userSpaceOnUse">
<stop stop-color="#FFEEAD"/>
<stop offset="1" stop-color="#F6A227"/>
</linearGradient>
<linearGradient id="paint3_linear_943_24449" x1="472.783" y1="29.334" x2="484.842" y2="29.334" gradientUnits="userSpaceOnUse">
<stop stop-color="#FFEEAD"/>
<stop offset="1" stop-color="#F4C736"/>
</linearGradient>
<linearGradient id="paint4_linear_943_24449" x1="462.442" y1="30.0164" x2="485.269" y2="30.0164" gradientUnits="userSpaceOnUse">
<stop stop-color="#F6A227"/>
<stop offset="1" stop-color="#F6A227"/>
</linearGradient>
<linearGradient id="paint5_linear_943_24449" x1="466.408" y1="28.7334" x2="481.85" y2="28.7334" gradientUnits="userSpaceOnUse">
<stop/>
<stop offset="0.04" stop-color="#050A0A"/>
<stop offset="0.11" stop-color="#142525"/>
<stop offset="0.2" stop-color="#2D5252"/>
<stop offset="0.31" stop-color="#4F8F91"/>
<stop offset="0.43" stop-color="#7ADDDF"/>
<stop offset="0.47" stop-color="#89F8FA"/>
<stop offset="0.54" stop-color="#74D3D4"/>
<stop offset="0.77" stop-color="#366263"/>
<stop offset="0.93" stop-color="#0F1B1B"/>
<stop offset="1"/>
</linearGradient>
<linearGradient id="paint6_linear_943_24449" x1="463.104" y1="29.9729" x2="485.268" y2="29.9729" gradientUnits="userSpaceOnUse">
<stop stop-color="#F6A227"/>
<stop offset="1" stop-color="#FFEEAD"/>
</linearGradient>
<linearGradient id="paint7_linear_943_24449" x1="423.306" y1="70.7144" x2="460.035" y2="70.7144" gradientUnits="userSpaceOnUse">
<stop stop-color="#F6A227"/>
<stop offset="1" stop-color="#F6A227"/>
</linearGradient>
<linearGradient id="paint8_linear_943_24449" x1="430.792" y1="69.2688" x2="454.246" y2="69.2688" gradientUnits="userSpaceOnUse">
<stop/>
<stop offset="0.04" stop-color="#050A0A"/>
<stop offset="0.11" stop-color="#142525"/>
<stop offset="0.2" stop-color="#2D5252"/>
<stop offset="0.31" stop-color="#4F8F91"/>
<stop offset="0.43" stop-color="#7ADDDF"/>
<stop offset="0.47" stop-color="#89F8FA"/>
<stop offset="0.54" stop-color="#74D3D4"/>
<stop offset="0.77" stop-color="#366263"/>
<stop offset="0.93" stop-color="#0F1B1B"/>
<stop offset="1"/>
</linearGradient>
<linearGradient id="paint9_linear_943_24449" x1="423.419" y1="70.7667" x2="460.032" y2="70.7667" gradientUnits="userSpaceOnUse">
<stop stop-color="#FFEEAD"/>
<stop offset="1" stop-color="#F6A227"/>
</linearGradient>
<linearGradient id="paint10_linear_943_24449" x1="430.342" y1="75.9951" x2="430.342" y2="65.4048" gradientUnits="userSpaceOnUse">
<stop stop-color="#FFEEAD"/>
<stop offset="1" stop-color="#F4C736"/>
</linearGradient>
<linearGradient id="paint11_linear_943_24449" x1="441.438" y1="76.1896" x2="441.438" y2="24.7794" gradientUnits="userSpaceOnUse">
<stop stop-color="#FFEEAD"/>
<stop offset="1" stop-color="#F6A227"/>
</linearGradient>
<linearGradient id="paint12_linear_943_24449" x1="446.039" y1="27.1891" x2="451.52" y2="44.3084" gradientUnits="userSpaceOnUse">
<stop/>
<stop offset="0.04" stop-color="#050A0A"/>
<stop offset="0.11" stop-color="#142525"/>
<stop offset="0.2" stop-color="#2D5252"/>
<stop offset="0.31" stop-color="#4F8F91"/>
<stop offset="0.43" stop-color="#7ADDDF"/>
<stop offset="0.47" stop-color="#89F8FA"/>
<stop offset="0.54" stop-color="#74D3D4"/>
<stop offset="0.77" stop-color="#366263"/>
<stop offset="0.93" stop-color="#0F1B1B"/>
<stop offset="1"/>
</linearGradient>
<linearGradient id="paint13_linear_943_24449" x1="423.3" y1="50.4831" x2="461.491" y2="50.7754" gradientUnits="userSpaceOnUse">
<stop stop-color="#F6A227"/>
<stop offset="0.595096" stop-color="#F6A227"/>
<stop offset="1" stop-color="#FFEEAD"/>
</linearGradient>
<clipPath id="clip0_943_24449">
<rect width="98.5936" height="63.5508" fill="white" transform="translate(423.301 20.2246)"/>
</clipPath>
</defs>
</svg>
