<svg width="124" height="124" viewBox="0 0 124 124" fill="none" xmlns="http://www.w3.org/2000/svg">
<circle cx="62" cy="62" r="62" fill="#C9C6DF"/>
<mask id="mask0_859_13195" style="mask-type:alpha" maskUnits="userSpaceOnUse" x="0" y="0" width="124" height="124">
<circle cx="62" cy="62" r="62" fill="#C9C6DF"/>
</mask>
<g mask="url(#mask0_859_13195)">
<path d="M100.922 95.4865C94.1495 89.5187 84.0887 86.5014 74.0883 85.3556C64.0879 84.2098 53.9253 84.7286 43.8231 84.6841C30.242 84.6268 16.7056 83.5542 3.20415 82.3511C2.42119 84.2989 1.79099 86.2818 1.39314 88.3061C0.877528 90.9383 0.788409 93.6691 1.23082 96.3172C2.23977 96.3968 3.25826 96.4063 4.2513 96.3554C8.17569 96.1517 11.9823 95.1841 15.894 94.8563C21.8617 94.3598 27.839 95.3655 33.7941 95.9289C56.0164 98.0264 78.5856 94.3948 100.922 95.4833V95.4865Z" fill="#AFAACF"/>
<path d="M-2.74291 90.87C-3.17853 99.4175 -2.17596 108.268 0.924667 115.194C4.45771 123.08 11.0626 127.764 16.8346 124.814C20.6751 122.854 23.8078 117.893 27.7732 116.759C31.1429 115.794 34.6087 117.79 37.4883 120.761C40.3679 123.726 42.8183 127.63 45.4897 131.058C52.2932 139.774 61.3452 145.454 69.7566 141.811C75.7144 139.231 80.5479 132.412 86.0253 127.856C92.1336 122.777 98.9947 120.555 105.379 116.446C111.762 112.336 118.047 105.595 120.42 95.2464C120.747 93.815 120.991 89.5182 121.16 88.0406C121.16 88.0406 84.195 90.8469 60.1069 90.87C35.6877 90.8935 -2.74291 86.1475 -2.74291 86.1475V90.87Z" fill="#756CAC"/>
</g>
<path d="M39.5277 47.4699C39.5341 47.1419 39.8097 46.8779 40.1475 46.8779H60.6429C60.9855 46.8779 61.3492 47.15 61.3492 47.4827V93.9364C61.3492 94.1846 61.2044 94.4227 61.0234 94.5978C60.8424 94.7732 60.5754 94.8712 60.3198 94.8707L39.6001 94.8158C39.3423 94.815 39.0901 94.7138 38.9098 94.535C38.7296 94.356 38.6278 94.1137 38.6328 93.8632L39.5277 47.4702V47.4699Z" fill="#BDD0FB"/>
<g opacity="0.52">
<g style="mix-blend-mode:overlay">
<path d="M51.2977 50.1696L58.0022 50.1472L57.9997 49.3325L51.3027 49.353L51.2977 50.1696Z" fill="white"/>
</g>
<g style="mix-blend-mode:overlay">
<path d="M51.2797 53.1702L58.0117 53.1401L58.0093 52.3188L51.2846 52.3467L51.2797 53.1702Z" fill="white"/>
</g>
<g style="mix-blend-mode:overlay">
<path d="M51.2612 56.1954L58.0211 56.1583L58.0183 55.3301L51.2661 55.3653L51.2612 56.1954Z" fill="white"/>
</g>
<g style="mix-blend-mode:overlay">
<path d="M51.2427 59.2463L58.0306 59.2018L58.0279 58.3667L51.2478 58.4093L51.2427 59.2463Z" fill="white"/>
</g>
<g style="mix-blend-mode:overlay">
<path d="M51.2235 62.3226L58.0398 62.2702L58.0371 61.4282L51.2287 61.4785L51.2235 62.3226Z" fill="white"/>
</g>
<g style="mix-blend-mode:overlay">
<path d="M51.1853 68.5524L58.0587 68.4842L58.0563 67.6279L51.1907 67.6939L51.1853 68.5524Z" fill="white"/>
</g>
<g style="mix-blend-mode:overlay">
<path d="M51.127 78.0958L58.088 78.0029L58.0853 77.125L51.1324 77.2154L51.127 78.0958Z" fill="white"/>
</g>
<g style="mix-blend-mode:overlay">
<path d="M51.2042 65.4243L58.0488 65.364L58.0463 64.5151L51.2093 64.5733L51.2042 65.4243Z" fill="white"/>
</g>
<g style="mix-blend-mode:overlay">
<path d="M51.1661 71.7066L58.0684 71.6305L58.0659 70.7671L51.1713 70.8412L51.1661 71.7066Z" fill="white"/>
</g>
<g style="mix-blend-mode:overlay">
<path d="M51.1463 74.8879L58.0778 74.8034L58.0751 73.9326L51.1515 74.0149L51.1463 74.8879Z" fill="white"/>
</g>
<g style="mix-blend-mode:overlay">
<path d="M51.107 81.331L58.0979 81.2298L58.0952 80.3442L51.1127 80.4432L51.107 81.331Z" fill="white"/>
</g>
<g style="mix-blend-mode:overlay">
<path d="M51.087 84.5941L58.108 84.4843L58.105 83.5913L51.0927 83.6987L51.087 84.5941Z" fill="white"/>
</g>
<g style="mix-blend-mode:overlay">
<path d="M51.0669 87.8857L58.1179 87.7673L58.1152 86.8662L51.0726 86.9824L51.0669 87.8857Z" fill="white"/>
</g>
<g style="mix-blend-mode:overlay">
<path d="M51.0467 91.2055L58.1282 91.0781L58.1252 90.1694L51.0524 90.2943L51.0467 91.2055Z" fill="white"/>
</g>
<g style="mix-blend-mode:overlay">
<path d="M42.5074 50.1991L49.254 50.1765L49.2614 49.3594L42.5225 49.3801L42.5074 50.1991Z" fill="white"/>
</g>
<g style="mix-blend-mode:overlay">
<path d="M42.4531 53.209L49.2275 53.179L49.2349 52.355L42.4681 52.3831L42.4531 53.209Z" fill="white"/>
</g>
<g style="mix-blend-mode:overlay">
<path d="M42.3979 56.2448L49.2007 56.2074L49.2081 55.3765L42.4132 55.4119L42.3979 56.2448Z" fill="white"/>
</g>
<g style="mix-blend-mode:overlay">
<path d="M42.3423 59.3052L49.1733 59.2601L49.1807 58.4224L42.3576 58.4655L42.3423 59.3052Z" fill="white"/>
</g>
<g style="mix-blend-mode:overlay">
<path d="M42.2858 62.3913L49.1454 62.3383L49.153 61.4937L42.3013 61.5444L42.2858 62.3913Z" fill="white"/>
</g>
<g style="mix-blend-mode:overlay">
<path d="M42.1726 68.6415L49.0901 68.5728L49.098 67.7139L42.1884 67.7804L42.1726 68.6415Z" fill="white"/>
</g>
<g style="mix-blend-mode:overlay">
<path d="M41.9985 78.2169L49.0049 78.1236L49.0128 77.2427L42.0145 77.3335L41.9985 78.2169Z" fill="white"/>
</g>
<g style="mix-blend-mode:overlay">
<path d="M42.2297 65.5032L49.1182 65.4426L49.1258 64.5908L42.2452 64.6492L42.2297 65.5032Z" fill="white"/>
</g>
<g style="mix-blend-mode:overlay">
<path d="M42.115 71.8062L49.062 71.7296L49.0697 70.8633L42.1308 70.9379L42.115 71.8062Z" fill="white"/>
</g>
<g style="mix-blend-mode:overlay">
<path d="M42.0571 74.998L49.0337 74.913L49.0414 74.0396L42.0729 74.122L42.0571 74.998Z" fill="white"/>
</g>
<g style="mix-blend-mode:overlay">
<path d="M41.9394 81.4636L48.9761 81.3617L48.984 80.4731L41.9556 80.5726L41.9394 81.4636Z" fill="white"/>
</g>
<g style="mix-blend-mode:overlay">
<path d="M41.8801 84.7382L48.9468 84.6276L48.9549 83.7314L41.8963 83.8396L41.8801 84.7382Z" fill="white"/>
</g>
<g style="mix-blend-mode:overlay">
<path d="M41.82 88.0413L48.9175 87.9221L48.9256 87.0181L41.8365 87.135L41.82 88.0413Z" fill="white"/>
</g>
<g style="mix-blend-mode:overlay">
<path d="M41.7594 91.3727L48.8877 91.2444L48.8961 90.3325L41.7759 90.4584L41.7594 91.3727Z" fill="white"/>
</g>
</g>
<path d="M80.1133 56.8265C80.1222 56.447 80.512 56.1348 80.9895 56.1348H99.0408C99.5247 56.1348 100 56.4633 100 56.8479V91.2239C100 91.4088 99.8657 91.5864 99.701 91.7169C99.5362 91.8474 99.292 91.9205 99.059 91.9201L80.1852 91.8792C79.9503 91.8787 79.7205 91.8033 79.5563 91.6699C79.392 91.5364 79.2994 91.3522 79.3039 91.1655L80.1131 56.8263L80.1133 56.8265Z" fill="#BDD0FB"/>
<path d="M93.4073 60.1856L98.5497 60.1802L98.5904 58.0854H93.443L93.4073 60.1856Z" fill="url(#paint0_linear_859_13195)"/>
<path d="M87.6431 60.1846L92.7803 60.1789L92.8156 58.0854H87.6734L87.6431 60.1846Z" fill="url(#paint1_linear_859_13195)"/>
<path d="M81.8847 60.1834L87.017 60.1779L87.0466 58.0854H81.9096L81.8847 60.1834Z" fill="url(#paint2_linear_859_13195)"/>
<path d="M93.3427 63.9457L98.476 63.9484L98.5166 61.8674L93.3784 61.8657L93.3427 63.9457Z" fill="url(#paint3_linear_859_13195)"/>
<path d="M87.5885 63.943L92.7169 63.9454L92.7519 61.8655L87.6185 61.8638L87.5885 63.943Z" fill="url(#paint4_linear_859_13195)"/>
<path d="M81.8403 63.9398L86.9635 63.9422L86.9931 61.8635L81.8649 61.8618L81.8403 63.9398Z" fill="url(#paint5_linear_859_13195)"/>
<path d="M93.2786 67.6797L98.4031 67.6839L98.4435 65.6101L93.3141 65.6069L93.2786 67.6797Z" fill="url(#paint6_linear_859_13195)"/>
<path d="M87.5345 67.6741L92.6538 67.6785L92.6887 65.6057L87.5643 65.6025L87.5345 67.6741Z" fill="url(#paint7_linear_859_13195)"/>
<path d="M81.7962 67.6699L86.9106 67.6741L86.9399 65.6026L81.8206 65.5991L81.7962 67.6699Z" fill="url(#paint8_linear_859_13195)"/>
<path d="M93.215 71.4001L98.3309 71.406L98.371 69.3394L93.2505 69.3345L93.215 71.4001Z" fill="url(#paint9_linear_859_13195)"/>
<path d="M87.481 71.3938L92.5914 71.3997L92.6264 69.334L87.5108 69.3291L87.481 71.3938Z" fill="url(#paint10_linear_859_13195)"/>
<path d="M81.7527 71.3869L86.858 71.3928L86.8873 69.3284L81.7771 69.3232L81.7527 71.3869Z" fill="url(#paint11_linear_859_13195)"/>
<path d="M93.1514 75.1088L98.2582 75.1162L98.2985 73.0569L93.1869 73.0503L93.1514 75.1088Z" fill="url(#paint12_linear_859_13195)"/>
<path d="M87.4273 75.1L92.5289 75.1076L92.5636 73.0491L87.4571 73.0425L87.4273 75.1Z" fill="url(#paint13_linear_859_13195)"/>
<path d="M81.7089 75.0917L86.8055 75.0991L86.8346 73.0418L81.7332 73.0352L81.7089 75.0917Z" fill="url(#paint14_linear_859_13195)"/>
<path d="M93.0878 78.8038L98.1856 78.8132L98.2258 76.7608L93.123 76.7524L93.0878 78.8038Z" fill="url(#paint15_linear_859_13195)"/>
<path d="M87.3739 78.7935L92.4668 78.8026L92.5013 76.7513L87.4035 76.7432L87.3739 78.7935Z" fill="url(#paint16_linear_859_13195)"/>
<path d="M81.6653 78.7833L86.7531 78.7924L86.7821 76.742L81.6894 76.7339L81.6653 78.7833Z" fill="url(#paint17_linear_859_13195)"/>
<path d="M93.0248 82.4864L98.1141 82.4972L98.154 80.4517L93.0601 80.4419L93.0248 82.4864Z" fill="url(#paint18_linear_859_13195)"/>
<path d="M87.3204 82.4744L92.4045 82.4852L92.439 80.441L87.3502 80.4312L87.3204 82.4744Z" fill="url(#paint19_linear_859_13195)"/>
<path d="M81.6219 82.4622L86.7009 82.473L86.7299 80.4298L81.6461 80.4199L81.6219 82.4622Z" fill="url(#paint20_linear_859_13195)"/>
<path d="M92.9621 86.1565L98.0425 86.169L98.0821 84.1307L92.9971 84.1191L92.9621 86.1565Z" fill="url(#paint21_linear_859_13195)"/>
<path d="M87.2672 86.1428L92.3424 86.1551L92.3768 84.118L87.2967 84.1064L87.2672 86.1428Z" fill="url(#paint22_linear_859_13195)"/>
<path d="M81.5786 86.1286L86.6489 86.1412L86.6777 84.1048L81.6025 84.0933L81.5786 86.1286Z" fill="url(#paint23_linear_859_13195)"/>
<path d="M92.8993 89.8136L97.9708 89.8277L98.0105 87.7965L92.934 87.7832L92.8993 89.8136Z" fill="url(#paint24_linear_859_13195)"/>
<path d="M87.2145 89.7977L92.2811 89.8118L92.3154 87.7816L87.2438 87.7686L87.2145 89.7977Z" fill="url(#paint25_linear_859_13195)"/>
<path d="M81.5355 89.7821L86.5969 89.7962L86.6258 87.767L81.5594 87.7539L81.5355 89.7821Z" fill="url(#paint26_linear_859_13195)"/>
<path d="M56.9405 70.4552C55.4673 65.8296 52.6168 62.1433 49.2406 59.9765C46.2224 58.0391 44.0477 55.0222 43.2426 51.5373C43.1579 51.1712 43.0574 50.8037 42.9405 50.4366C41.1686 44.8737 36.3089 41.4544 32.086 42.7995C27.8631 44.1446 25.876 49.7446 27.6479 55.3074C28.0101 56.4448 28.5017 57.4924 29.0905 58.428C30.9694 61.4134 31.7048 64.9941 31.0135 68.4575C30.3957 71.5525 30.5634 75.0374 31.6678 78.5052C33.3151 83.6772 36.6842 87.6753 40.5855 89.688C42.0611 90.4492 43.3916 91.4729 44.4934 92.7101C46.3244 94.7659 48.9049 95.732 51.2757 94.977C53.8334 94.1623 55.4311 91.5724 55.5461 88.5507C55.6111 86.8407 56.0133 85.1646 56.6686 83.5802C58.2156 79.8395 58.4303 75.1324 56.9407 70.4557L56.9405 70.4552Z" fill="#59AB8F"/>
<path opacity="0.57" d="M35.4497 48.2461C37.1723 51.747 38.7806 55.3003 40.3515 58.8706C40.7446 59.763 41.1233 60.6616 41.5048 61.559L42.0768 62.9051L42.6376 64.2561C43.0079 65.1581 43.3909 66.055 43.7509 66.9615L44.8315 69.6802C45.5287 71.5021 46.2414 73.3178 46.9043 75.1524C47.237 76.0693 47.5879 76.9794 47.9019 77.9032L48.8569 80.6692C50.0927 84.3698 51.2358 88.1033 52.1866 91.8876L52.0233 91.9305L51.2035 89.1263L51.0001 88.4249L50.7792 87.7288L50.3347 86.3374L49.8929 84.9455C49.7464 84.4813 49.5829 84.0225 49.4285 83.5608C49.1138 82.6393 48.8067 81.7155 48.486 80.7962C47.1796 77.1269 45.8242 73.4754 44.3934 69.8521C43.664 68.046 42.9503 66.2338 42.2083 64.4326L41.6555 63.0804L41.0913 61.7326C40.7157 60.8338 40.3402 59.9352 39.9555 59.0402C39.2015 57.2438 38.4346 55.4527 37.653 53.668C36.8807 51.8792 36.0914 50.0972 35.2968 48.3185L35.4494 48.2463L35.4497 48.2461Z" fill="white"/>
<path d="M66.2648 58.2613C65.5762 53.2097 63.3005 48.8802 60.2104 46.0265C57.4481 43.4757 55.7486 39.9608 55.544 36.21C55.5226 35.8157 55.4847 35.4175 55.43 35.0164C54.6023 28.9411 50.2085 24.5236 45.6167 25.1494C41.0249 25.7751 37.9737 31.2077 38.8016 37.283C38.9708 38.5254 39.2895 39.6981 39.7283 40.7723C41.1288 44.201 41.2446 48.038 39.9113 51.495C38.7199 54.5843 38.2677 58.2194 38.7839 62.0067C39.5537 67.6552 42.3082 72.4014 45.9664 75.1903C47.3501 76.2453 48.5374 77.5453 49.4507 79.0246C50.9687 81.4828 53.454 82.95 56.0318 82.5988C58.8129 82.2198 60.9233 79.8304 61.5838 76.7257C61.9574 74.9687 62.6723 73.3079 63.6315 71.7877C65.8961 68.1989 66.961 63.3687 66.265 58.2613H66.2648Z" fill="#3C9E7C"/>
<path opacity="0.57" d="M48.1055 31.3936C49.2526 35.3269 50.2724 39.2941 51.2508 43.2718C51.4958 44.2662 51.7248 45.2643 51.9571 46.2616L52.3053 47.7577L52.6409 49.2567C52.8608 50.257 53.0946 51.2541 53.3029 52.2569L53.9286 55.265C54.3202 57.2757 54.7287 59.283 55.0831 61.3008C55.2617 62.3095 55.4596 63.3145 55.6177 64.3269L56.1058 67.3611C56.7156 71.4128 57.2236 75.4821 57.525 79.5688L57.349 79.5836L57.0072 76.5343L56.9234 75.7722L56.8205 75.012L56.6119 73.4923L56.4063 71.9723C56.3388 71.4658 56.2521 70.9614 56.176 70.4559C56.0172 69.4457 55.8662 68.4343 55.7007 67.4254C55.0127 63.3933 54.2709 59.3701 53.4465 55.363C53.019 53.3626 52.6084 51.3585 52.1669 49.3611L51.8398 47.8621L51.5003 46.3658C51.2744 45.3682 51.0486 44.3703 50.8127 43.3749C50.3578 41.3802 49.889 39.3885 49.4036 37.4006C48.9288 35.4103 48.435 33.424 47.9351 31.4401L48.1053 31.3931L48.1055 31.3936Z" fill="white"/>
<path d="M90.3702 40.6816H50.2872C49.974 40.6816 49.72 40.9356 49.72 41.2488V95.4141C49.72 95.7273 49.974 95.9812 50.2872 95.9812H90.3702C90.6835 95.9812 90.9374 95.7273 90.9374 95.4141V41.2488C90.9374 40.9356 90.6835 40.6816 90.3702 40.6816Z" fill="url(#paint27_linear_859_13195)"/>
<path d="M83.9207 48.9897H56.6489C55.6151 48.9897 54.777 49.8278 54.777 50.8616V86.8252C54.777 87.859 55.6151 88.697 56.6489 88.697H83.9207C84.9544 88.697 85.7925 87.859 85.7925 86.8252V50.8616C85.7925 49.8278 84.9544 48.9897 83.9207 48.9897Z" fill="#FCE2BC"/>
<path d="M82.8888 52.2559H57.7053C57.3952 52.2559 57.1439 52.5072 57.1439 52.8173V85.3729C57.1439 85.683 57.3952 85.9344 57.7053 85.9344H82.8888C83.1989 85.9344 83.4503 85.683 83.4503 85.3729V52.8173C83.4503 52.5072 83.1989 52.2559 82.8888 52.2559Z" fill="#CDC2FF"/>
<path d="M71.1255 45.7938C71.6071 45.3122 71.6071 44.5315 71.1255 44.05C70.644 43.5685 69.8633 43.5685 69.3818 44.05C68.9002 44.5315 68.9002 45.3122 69.3818 45.7938C69.8633 46.2753 70.644 46.2753 71.1255 45.7938Z" fill="#C9C6DF"/>
<path d="M78.2197 64.8272L62.3562 65.0909C61.1488 65.1111 60.1664 66.0499 60.1664 67.1879V77.1782C60.1664 78.3162 61.1488 79.1993 62.3562 79.1508L78.2197 78.5137C79.3591 78.4679 80.2796 77.5395 80.2796 76.4397V66.7845C80.2796 65.6847 79.3591 64.8085 78.2197 64.8275V64.8272Z" fill="white"/>
<path d="M79.0225 63.0205C78.542 63.0277 78.152 62.6568 78.152 62.1924V60.0058C78.152 57.8123 76.2966 56.0331 73.9997 56.0397L68.8319 56.0548C66.4759 56.0617 64.5453 57.8934 64.5453 60.138V62.3756C64.5453 62.8511 64.1362 63.2424 63.6309 63.25C63.1246 63.2577 62.7136 62.8772 62.7136 62.4002V60.1558C62.7136 56.9519 65.4739 54.3452 68.8319 54.3452H73.9997C77.2627 54.3452 79.8906 56.877 79.8906 59.9888V62.1687C79.8906 62.6319 79.5022 63.0131 79.0225 63.0203V63.0205Z" fill="white"/>
<path d="M72.8545 70.3645C72.8545 69.2544 71.8853 68.3826 70.7071 68.4626C69.6652 68.5335 68.8035 69.3679 68.7474 70.364C68.7038 71.137 69.1286 71.8054 69.7743 72.1432C70.0491 72.2871 70.1856 72.59 70.1321 72.8897L69.6792 75.4313C69.6216 75.7549 69.8817 76.0394 70.224 76.027L71.3881 75.9854C71.7286 75.9731 71.987 75.6714 71.9298 75.353L71.4772 72.8348C71.4233 72.5343 71.5794 72.2361 71.8547 72.0713C72.4536 71.7133 72.8545 71.0782 72.8545 70.364V70.3645Z" fill="#CDC2FF"/>
<path d="M50.672 61.9257C50.672 61.9257 50.3388 61.3351 50.36 61.048C50.3812 60.7611 50.2024 60.3397 50.3928 60.3708C50.5831 60.402 50.6223 60.3764 50.674 60.7207C50.7257 61.065 51.3261 62.5689 50.672 61.9254V61.9257Z" fill="url(#paint28_linear_859_13195)"/>
<path d="M52.4689 59.8164C52.2763 59.7384 51.8998 59.0203 51.8276 59.2564C51.7555 59.4926 51.8582 59.8164 51.8276 59.9169C51.7971 60.0174 51.3277 61.1731 51.4213 61.4297C51.489 61.6149 51.8619 61.5876 51.9188 61.8907C51.9377 61.9912 52.018 62.0633 52.1113 62.0636C52.2047 62.0636 52.285 61.9917 52.3039 61.8909C52.3116 61.8506 52.6612 59.8945 52.4689 59.8164Z" fill="url(#paint29_linear_859_13195)"/>
<path d="M30.9164 52.1043C28.798 56.2941 30.4772 61.4076 34.667 63.526C38.0721 65.2478 42.0879 64.4608 44.6097 61.856L59.1666 69.2159C59.4084 69.338 59.6959 69.3281 59.9285 69.1895L61.3522 68.3415C61.3766 68.3267 61.3999 68.3109 61.4222 68.2941C61.4284 68.2893 61.4345 68.2845 61.4407 68.2794C61.4572 68.266 61.4733 68.2523 61.4884 68.2382C61.4935 68.2334 61.4987 68.2286 61.5038 68.2235C61.5227 68.2046 61.5409 68.1854 61.5577 68.1651C61.5577 68.1651 61.5584 68.1644 61.5584 68.1641C61.7371 67.9466 61.7917 67.643 61.6822 67.3686L60.5254 64.4687C60.4541 64.2896 60.3196 64.1428 60.1474 64.0557L58.6894 63.3185L58.3035 64.0818L57.051 63.4485L57.4369 62.6852L56.265 62.0927L55.91 62.7946L54.3878 62.0248L54.7429 61.3229L54.1758 61.0361L53.993 61.3973L52.7168 60.7521L52.8997 60.3908L51.9072 59.8889L51.5213 60.6522L50.8122 60.2937L51.1981 59.5304L50.5837 59.2196L50.1978 59.9826L48.9689 59.3613L49.3549 58.598L47.6276 57.7246L46.888 57.3507C47.4907 53.7757 45.7439 50.0752 42.3387 48.3534C38.149 46.235 33.0354 47.9143 30.917 52.104L30.9164 52.1043ZM35.8759 52.6831C36.7243 53.1119 37.0642 54.1476 36.6354 54.9959C36.2066 55.8443 35.1709 56.1843 34.3225 55.7555C33.4742 55.3266 33.1342 54.291 33.563 53.4426C33.9918 52.5942 35.0275 52.2542 35.8759 52.6831Z" fill="#4B4189"/>
<path d="M42.7157 54.6719L49.6163 58.1607L49.2303 58.924L50.4592 59.5453L50.8451 58.782L51.4595 59.0928L51.0736 59.8561L51.7827 60.2146L52.1686 59.4513L53.1611 59.9532L52.9782 60.3144L54.2544 60.9597L54.4372 60.5985L55.0043 60.8853L54.6492 61.5872L56.1714 62.357L56.5264 61.6551L57.6983 62.2476L57.3124 63.0109L58.5649 63.6441L58.9508 62.8808L60.4088 63.6181C60.581 63.7052 60.7151 63.852 60.7868 64.0311L61.9436 66.9309C62.0877 67.2922 61.9477 67.7049 61.6136 67.9042L60.1899 68.7522C59.957 68.8908 59.6695 68.9008 59.428 68.7786L41.8553 59.8939L42.715 54.6719H42.7157Z" fill="url(#paint30_linear_859_13195)"/>
<path d="M34.9291 63.0887C39.1188 65.207 44.2324 63.5278 46.3507 59.338C48.4691 55.1483 46.7898 50.0347 42.6001 47.9164C38.4104 45.798 33.2968 47.4772 31.1784 51.667C29.0601 55.8567 30.7393 60.9703 34.9291 63.0887ZM34.5846 55.3178C33.7363 54.8889 33.3963 53.8533 33.8251 53.0049C34.2539 52.1565 35.2896 51.8166 36.138 52.2454C36.9864 52.6742 37.3263 53.7099 36.8975 54.5582C36.4687 55.4066 35.433 55.7466 34.5846 55.3178Z" fill="url(#paint31_linear_859_13195)"/>
<path d="M44.8715 61.4187L59.4283 68.7786C59.6702 68.9007 59.9577 68.8907 60.1903 68.7521L61.6139 67.9041C61.8287 67.7762 61.9618 67.56 61.9923 67.3261C60.6657 65.8887 48.0543 60.3816 47.5826 59.2482C47.4149 58.8451 47.3861 58.2344 47.889 57.2876L47.1494 56.9137C47.7521 53.3387 46.0053 49.6381 42.6001 47.9164C38.4104 45.798 33.2968 47.4772 31.1784 51.667C29.0601 55.8567 30.7393 60.9703 34.9291 63.0887C38.3342 64.8104 42.3497 64.0231 44.8715 61.4187ZM36.138 52.2457C36.9864 52.6745 37.3263 53.7102 36.8975 54.5586C36.4687 55.407 35.433 55.7469 34.5846 55.3181C33.7363 54.8893 33.3963 53.8536 33.8251 53.0052C34.2539 52.1569 35.2896 51.8169 36.138 52.2457Z" fill="url(#paint32_linear_859_13195)"/>
<path d="M35.6817 61.6C39.0492 63.3026 43.1593 61.953 44.8619 58.5856C46.5645 55.2182 45.2149 51.108 41.8475 49.4055C38.48 47.7029 34.3699 49.0525 32.6673 52.4199C30.9647 55.7873 32.3143 59.8975 35.6817 61.6ZM34.5846 55.318C33.7363 54.8892 33.3963 53.8535 33.8251 53.0051C34.2539 52.1568 35.2896 51.8168 36.138 52.2456C36.9864 52.6744 37.3263 53.7101 36.8975 54.5585C36.4687 55.4069 35.433 55.7468 34.5846 55.318Z" fill="url(#paint33_linear_859_13195)"/>
<defs>
<linearGradient id="paint0_linear_859_13195" x1="93.4073" y1="59.1355" x2="98.5904" y2="59.1355" gradientUnits="userSpaceOnUse">
<stop stop-color="#DAE3FE"/>
<stop offset="1" stop-color="#E9EFFD"/>
</linearGradient>
<linearGradient id="paint1_linear_859_13195" x1="87.6431" y1="59.135" x2="92.8156" y2="59.135" gradientUnits="userSpaceOnUse">
<stop stop-color="#DAE3FE"/>
<stop offset="1" stop-color="#E9EFFD"/>
</linearGradient>
<linearGradient id="paint2_linear_859_13195" x1="81.8847" y1="59.1345" x2="87.0466" y2="59.1345" gradientUnits="userSpaceOnUse">
<stop stop-color="#DAE3FE"/>
<stop offset="1" stop-color="#E9EFFD"/>
</linearGradient>
<linearGradient id="paint3_linear_859_13195" x1="93.3427" y1="62.9072" x2="98.5166" y2="62.9072" gradientUnits="userSpaceOnUse">
<stop stop-color="#DAE3FE"/>
<stop offset="1" stop-color="#E9EFFD"/>
</linearGradient>
<linearGradient id="paint4_linear_859_13195" x1="87.5885" y1="62.9047" x2="92.7519" y2="62.9047" gradientUnits="userSpaceOnUse">
<stop stop-color="#DAE3FE"/>
<stop offset="1" stop-color="#E9EFFD"/>
</linearGradient>
<linearGradient id="paint5_linear_859_13195" x1="81.8403" y1="62.902" x2="86.9931" y2="62.902" gradientUnits="userSpaceOnUse">
<stop stop-color="#DAE3FE"/>
<stop offset="1" stop-color="#E9EFFD"/>
</linearGradient>
<linearGradient id="paint6_linear_859_13195" x1="93.2786" y1="66.6454" x2="98.4435" y2="66.6454" gradientUnits="userSpaceOnUse">
<stop stop-color="#DAE3FE"/>
<stop offset="1" stop-color="#E9EFFD"/>
</linearGradient>
<linearGradient id="paint7_linear_859_13195" x1="87.5345" y1="66.6405" x2="92.6887" y2="66.6405" gradientUnits="userSpaceOnUse">
<stop stop-color="#DAE3FE"/>
<stop offset="1" stop-color="#E9EFFD"/>
</linearGradient>
<linearGradient id="paint8_linear_859_13195" x1="81.7962" y1="66.6366" x2="86.9399" y2="66.6366" gradientUnits="userSpaceOnUse">
<stop stop-color="#DAE3FE"/>
<stop offset="1" stop-color="#E9EFFD"/>
</linearGradient>
<linearGradient id="paint9_linear_859_13195" x1="93.215" y1="70.3702" x2="98.371" y2="70.3702" gradientUnits="userSpaceOnUse">
<stop stop-color="#DAE3FE"/>
<stop offset="1" stop-color="#E9EFFD"/>
</linearGradient>
<linearGradient id="paint10_linear_859_13195" x1="87.481" y1="70.3644" x2="92.6264" y2="70.3644" gradientUnits="userSpaceOnUse">
<stop stop-color="#DAE3FE"/>
<stop offset="1" stop-color="#E9EFFD"/>
</linearGradient>
<linearGradient id="paint11_linear_859_13195" x1="81.7527" y1="70.358" x2="86.8873" y2="70.358" gradientUnits="userSpaceOnUse">
<stop stop-color="#DAE3FE"/>
<stop offset="1" stop-color="#E9EFFD"/>
</linearGradient>
<linearGradient id="paint12_linear_859_13195" x1="93.1514" y1="74.0834" x2="98.2985" y2="74.0834" gradientUnits="userSpaceOnUse">
<stop stop-color="#DAE3FE"/>
<stop offset="1" stop-color="#E9EFFD"/>
</linearGradient>
<linearGradient id="paint13_linear_859_13195" x1="87.4273" y1="74.0751" x2="92.5636" y2="74.0751" gradientUnits="userSpaceOnUse">
<stop stop-color="#DAE3FE"/>
<stop offset="1" stop-color="#E9EFFD"/>
</linearGradient>
<linearGradient id="paint14_linear_859_13195" x1="81.7089" y1="74.0672" x2="86.8346" y2="74.0672" gradientUnits="userSpaceOnUse">
<stop stop-color="#DAE3FE"/>
<stop offset="1" stop-color="#E9EFFD"/>
</linearGradient>
<linearGradient id="paint15_linear_859_13195" x1="93.0878" y1="77.7828" x2="98.2258" y2="77.7828" gradientUnits="userSpaceOnUse">
<stop stop-color="#DAE3FE"/>
<stop offset="1" stop-color="#E9EFFD"/>
</linearGradient>
<linearGradient id="paint16_linear_859_13195" x1="87.3739" y1="77.7728" x2="92.5013" y2="77.7728" gradientUnits="userSpaceOnUse">
<stop stop-color="#DAE3FE"/>
<stop offset="1" stop-color="#E9EFFD"/>
</linearGradient>
<linearGradient id="paint17_linear_859_13195" x1="81.6653" y1="77.763" x2="86.7821" y2="77.763" gradientUnits="userSpaceOnUse">
<stop stop-color="#DAE3FE"/>
<stop offset="1" stop-color="#E9EFFD"/>
</linearGradient>
<linearGradient id="paint18_linear_859_13195" x1="93.0248" y1="81.4695" x2="98.154" y2="81.4695" gradientUnits="userSpaceOnUse">
<stop stop-color="#DAE3FE"/>
<stop offset="1" stop-color="#E9EFFD"/>
</linearGradient>
<linearGradient id="paint19_linear_859_13195" x1="87.3204" y1="81.4583" x2="92.439" y2="81.4583" gradientUnits="userSpaceOnUse">
<stop stop-color="#DAE3FE"/>
<stop offset="1" stop-color="#E9EFFD"/>
</linearGradient>
<linearGradient id="paint20_linear_859_13195" x1="81.6219" y1="81.4463" x2="86.7299" y2="81.4463" gradientUnits="userSpaceOnUse">
<stop stop-color="#DAE3FE"/>
<stop offset="1" stop-color="#E9EFFD"/>
</linearGradient>
<linearGradient id="paint21_linear_859_13195" x1="92.9621" y1="85.1441" x2="98.0821" y2="85.1441" gradientUnits="userSpaceOnUse">
<stop stop-color="#DAE3FE"/>
<stop offset="1" stop-color="#E9EFFD"/>
</linearGradient>
<linearGradient id="paint22_linear_859_13195" x1="87.2672" y1="85.1309" x2="92.3768" y2="85.1309" gradientUnits="userSpaceOnUse">
<stop stop-color="#DAE3FE"/>
<stop offset="1" stop-color="#E9EFFD"/>
</linearGradient>
<linearGradient id="paint23_linear_859_13195" x1="81.5786" y1="85.1172" x2="86.6777" y2="85.1172" gradientUnits="userSpaceOnUse">
<stop stop-color="#DAE3FE"/>
<stop offset="1" stop-color="#E9EFFD"/>
</linearGradient>
<linearGradient id="paint24_linear_859_13195" x1="92.8993" y1="88.8054" x2="98.0105" y2="88.8054" gradientUnits="userSpaceOnUse">
<stop stop-color="#DAE3FE"/>
<stop offset="1" stop-color="#E9EFFD"/>
</linearGradient>
<linearGradient id="paint25_linear_859_13195" x1="87.2145" y1="88.79" x2="92.3154" y2="88.79" gradientUnits="userSpaceOnUse">
<stop stop-color="#DAE3FE"/>
<stop offset="1" stop-color="#E9EFFD"/>
</linearGradient>
<linearGradient id="paint26_linear_859_13195" x1="81.5355" y1="88.7749" x2="86.6258" y2="88.7749" gradientUnits="userSpaceOnUse">
<stop stop-color="#DAE3FE"/>
<stop offset="1" stop-color="#E9EFFD"/>
</linearGradient>
<linearGradient id="paint27_linear_859_13195" x1="51.0001" y1="40" x2="91.0001" y2="98.5" gradientUnits="userSpaceOnUse">
<stop stop-color="#FFEEAD"/>
<stop offset="1" stop-color="#F6A227"/>
</linearGradient>
<linearGradient id="paint28_linear_859_13195" x1="52.5109" y1="59.6098" x2="44.4665" y2="66.5586" gradientUnits="userSpaceOnUse">
<stop stop-color="#FEBBBA"/>
<stop offset="1" stop-color="#FF928E"/>
</linearGradient>
<linearGradient id="paint29_linear_859_13195" x1="52.8085" y1="59.9546" x2="44.7641" y2="66.9036" gradientUnits="userSpaceOnUse">
<stop stop-color="#FEBBBA"/>
<stop offset="1" stop-color="#FF928E"/>
</linearGradient>
<linearGradient id="paint30_linear_859_13195" x1="47.184" y1="63.4454" x2="65.9902" y2="60.6593" gradientUnits="userSpaceOnUse">
<stop stop-color="#815EDA"/>
<stop offset="1" stop-color="#B96CF9"/>
</linearGradient>
<linearGradient id="paint31_linear_859_13195" x1="28.8899" y1="54.766" x2="73.3287" y2="58.0906" gradientUnits="userSpaceOnUse">
<stop stop-color="#FF9085"/>
<stop offset="1" stop-color="#FB6FBB"/>
</linearGradient>
<linearGradient id="paint32_linear_859_13195" x1="34.6463" y1="65.5348" x2="55.5421" y2="63.4452" gradientUnits="userSpaceOnUse">
<stop stop-color="#7F5DD9"/>
<stop offset="1" stop-color="#B86BF8"/>
</linearGradient>
<linearGradient id="paint33_linear_859_13195" x1="44.3978" y1="51.6043" x2="34.6465" y2="60.6592" gradientUnits="userSpaceOnUse">
<stop stop-color="#7F5DD9"/>
<stop offset="1" stop-color="#B96CF9"/>
</linearGradient>
</defs>
</svg>
