<svg width="18" height="18" viewBox="0 0 18 18" fill="none" xmlns="http://www.w3.org/2000/svg">
<path d="M16.6667 17.1667H1.33333C0.596667 17.1667 0 16.5693 0 15.8333V7.83333C0 7.83333 3.48067 9.62333 6.66667 10.356V11.1667C6.66667 11.5353 6.96467 11.8333 7.33333 11.8333H10.6667C11.0347 11.8333 11.3333 11.5353 11.3333 11.1667V10.356C14.5187 9.62333 18 7.83333 18 7.83333V15.8333C18 16.5693 17.4027 17.1667 16.6667 17.1667ZM10 9.16667C10.368 9.16667 10.6667 9.46467 10.6667 9.83333V10.5C10.6667 10.8687 10.368 11.1667 10 11.1667H8C7.63133 11.1667 7.33333 10.8687 7.33333 10.5V9.83333C7.33333 9.46467 7.63133 9.16667 8 9.16667H10ZM11.3333 9.16667C11.3333 8.798 11.0347 8.5 10.6667 8.5H7.33333C6.96467 8.5 6.66667 8.798 6.66667 9.16667V9.764C3.48067 9.00933 0 7.16667 0 7.16667V4.5C0 3.764 0.596667 3.16667 1.33333 3.16667H5.33333V1.83333C5.33333 1.09733 5.93067 0.5 6.66667 0.5H11.3333C12.0693 0.5 12.6667 1.09733 12.6667 1.83333V3.16667H16.6667C17.4027 3.16667 18 3.764 18 4.5V7.16667C18 7.16667 14.5187 9.00933 11.3333 9.764V9.16667ZM11.3333 2.5C11.3333 2.13133 11.0347 1.83333 10.6667 1.83333H7.33333C6.96467 1.83333 6.66667 2.13133 6.66667 2.5C6.66667 2.868 6.66667 3.16667 6.66667 3.16667H11.3333C11.3333 3.16667 11.3333 2.868 11.3333 2.5Z" fill="#A9A9AA"/>
</svg>
