<svg width="22" height="23" viewBox="0 0 22 23" fill="none" xmlns="http://www.w3.org/2000/svg">
<path d="M21.3499 5.16114C21.5983 5.16114 21.7999 4.95952 21.7999 4.71113V2.91111C21.7999 2.66272 21.5983 2.4611 21.3499 2.4611H19.0999V1.1111C19.0999 0.862747 18.8983 0.661133 18.6499 0.661133H3.34996C3.10156 0.661133 2.89995 0.862746 2.89995 1.11115V2.46114H0.649964C0.401565 2.46114 0.199951 2.66272 0.199951 2.91111V4.71113C0.199951 4.95952 0.401565 5.16114 0.649964 5.16114H1.09998V19.5611H0.649964C0.401565 19.5611 0.199951 19.7627 0.199951 20.0111V21.8111C0.199951 22.0595 0.401565 22.2611 0.649964 22.2611H21.3499C21.5983 22.2611 21.8 22.0595 21.8 21.8111V20.0111C21.8 19.7627 21.5983 19.5611 21.3499 19.5611H20.8999V5.16114H21.3499ZM6.49992 18.2111C6.49992 18.4595 6.29831 18.6611 6.04991 18.6611H3.34992C3.10156 18.6611 2.89995 18.4595 2.89995 18.2111V15.5111C2.89995 15.2627 3.10156 15.0611 3.34996 15.0611H6.04995C6.29835 15.0611 6.49997 15.2627 6.49997 15.5111V18.2111H6.49992ZM6.49992 13.7111C6.49992 13.9595 6.29831 14.1611 6.04991 14.1611H3.34992C3.10156 14.1611 2.89995 13.9595 2.89995 13.7111V11.0111C2.89995 10.7627 3.10156 10.5611 3.34996 10.5611H6.04995C6.29835 10.5611 6.49997 10.7627 6.49997 11.0111V13.7111H6.49992ZM6.49992 9.21113C6.49992 9.45953 6.29831 9.66114 6.04991 9.66114H3.34992C3.10152 9.66114 2.8999 9.45953 2.8999 9.21113V6.51114C2.89995 6.26274 3.10156 6.06112 3.34996 6.06112H6.04995C6.29835 6.06112 6.49997 6.26274 6.49997 6.51114V9.21113H6.49992ZM12.7999 19.5611H9.19996V15.5111C9.19996 15.2627 9.40158 15.0611 9.64998 15.0611H12.35C12.5984 15.0611 12.8 15.2627 12.8 15.5111V19.5611H12.7999ZM12.7999 13.7111C12.7999 13.9595 12.5983 14.1611 12.3499 14.1611H9.64993C9.40153 14.1611 9.19992 13.9595 9.19992 13.7111V11.0111C9.19992 10.7627 9.40153 10.5611 9.64993 10.5611H12.3499C12.5983 10.5611 12.7999 10.7627 12.7999 11.0111V13.7111ZM12.7999 9.21113C12.7999 9.45953 12.5983 9.66114 12.3499 9.66114H9.64993C9.40153 9.66114 9.19992 9.45953 9.19992 9.21113V6.51114C9.19992 6.26274 9.40153 6.06112 9.64993 6.06112H12.3499C12.5983 6.06112 12.7999 6.26274 12.7999 6.51114V9.21113ZM19.0999 18.2111C19.0999 18.4595 18.8983 18.6611 18.6499 18.6611H15.9499C15.7015 18.6611 15.4999 18.4595 15.4999 18.2111V15.5111C15.4999 15.2627 15.7015 15.0611 15.9499 15.0611H18.6499C18.8983 15.0611 19.0999 15.2627 19.0999 15.5111V18.2111ZM19.0999 13.7111C19.0999 13.9595 18.8983 14.1611 18.6499 14.1611H15.9499C15.7015 14.1611 15.4999 13.9595 15.4999 13.7111V11.0111C15.4999 10.7627 15.7015 10.5611 15.9499 10.5611H18.6499C18.8983 10.5611 19.0999 10.7627 19.0999 11.0111V13.7111ZM19.0999 9.21113C19.0999 9.45953 18.8983 9.66114 18.6499 9.66114H15.9499C15.7015 9.66114 15.4999 9.45953 15.4999 9.21113V6.51114C15.4999 6.26274 15.7015 6.06112 15.9499 6.06112H18.6499C18.8983 6.06112 19.0999 6.26274 19.0999 6.51114V9.21113Z" fill="#524797"/>
</svg>
