<svg width="18" height="19" viewBox="0 0 18 19" fill="none" xmlns="http://www.w3.org/2000/svg">
<path d="M17.625 4.25C17.832 4.25 18 4.08199 18 3.87499V2.37498C18 2.16799 17.832 1.99997 17.625 1.99997H15.75V0.874976C15.75 0.668011 15.582 0.5 15.375 0.5H2.62501C2.41801 0.5 2.25 0.668011 2.25 0.875011V2.00001H0.375011C0.168011 2.00001 0 2.16799 0 2.37498V3.87499C0 4.08199 0.168011 4.25 0.375011 4.25H0.750022V16.25H0.375011C0.168011 16.25 0 16.418 0 16.625V18.125C0 18.332 0.168011 18.5 0.375011 18.5H17.625C17.832 18.5 18 18.332 18 18.125V16.6249C18 16.4179 17.832 16.2499 17.625 16.2499H17.25V4.25H17.625ZM5.24998 15.125C5.24998 15.332 5.08197 15.5 4.87497 15.5H2.62497C2.41801 15.5 2.25 15.332 2.25 15.125V12.875C2.25 12.668 2.41801 12.5 2.62501 12.5H4.875C5.082 12.5 5.25001 12.668 5.25001 12.875V15.125H5.24998ZM5.24998 11.375C5.24998 11.582 5.08197 11.75 4.87497 11.75H2.62497C2.41801 11.75 2.25 11.582 2.25 11.375V9.12497C2.25 8.91797 2.41801 8.74996 2.62501 8.74996H4.875C5.082 8.74996 5.25001 8.91797 5.25001 9.12497V11.375H5.24998ZM5.24998 7.625C5.24998 7.832 5.08197 8.00001 4.87497 8.00001H2.62497C2.41797 8.00001 2.24996 7.832 2.24996 7.625V5.375C2.25 5.168 2.41801 4.99999 2.62501 4.99999H4.875C5.082 4.99999 5.25001 5.168 5.25001 5.375V7.625H5.24998ZM10.5 16.25H7.50001V12.875C7.50001 12.668 7.66802 12.5 7.87502 12.5H10.125C10.332 12.5 10.5 12.668 10.5 12.875V16.25H10.5ZM10.5 11.375C10.5 11.582 10.332 11.75 10.125 11.75H7.87498C7.66799 11.75 7.49997 11.582 7.49997 11.375V9.12497C7.49997 8.91797 7.66799 8.74996 7.87498 8.74996H10.125C10.332 8.74996 10.5 8.91797 10.5 9.12497V11.375ZM10.5 7.625C10.5 7.832 10.332 8.00001 10.125 8.00001H7.87498C7.66799 8.00001 7.49997 7.832 7.49997 7.625V5.375C7.49997 5.168 7.66799 4.99999 7.87498 4.99999H10.125C10.332 4.99999 10.5 5.168 10.5 5.375V7.625ZM15.75 15.125C15.75 15.332 15.582 15.5 15.375 15.5H13.125C12.918 15.5 12.75 15.332 12.75 15.125V12.875C12.75 12.668 12.918 12.5 13.125 12.5H15.375C15.582 12.5 15.75 12.668 15.75 12.875V15.125ZM15.75 11.375C15.75 11.582 15.582 11.75 15.375 11.75H13.125C12.918 11.75 12.75 11.582 12.75 11.375V9.12497C12.75 8.91797 12.918 8.74996 13.125 8.74996H15.375C15.582 8.74996 15.75 8.91797 15.75 9.12497V11.375ZM15.75 7.625C15.75 7.832 15.582 8.00001 15.375 8.00001H13.125C12.918 8.00001 12.75 7.832 12.75 7.625V5.375C12.75 5.168 12.918 4.99999 13.125 4.99999H15.375C15.582 4.99999 15.75 5.168 15.75 5.375V7.625Z" fill="#A9A9AA"/>
</svg>
