<svg width="18" height="19" viewBox="0 0 18 19" fill="none" xmlns="http://www.w3.org/2000/svg">
<path d="M16.7626 4.48536C16.9489 4.48536 17.1001 4.33415 17.1001 4.14785V2.79784C17.1001 2.61154 16.9489 2.46033 16.7626 2.46033H15.0751V1.44783C15.0751 1.26156 14.9239 1.11035 14.7376 1.11035H3.26265C3.07635 1.11035 2.92514 1.26156 2.92514 1.44786V2.46036H1.23766C1.05136 2.46036 0.900146 2.61154 0.900146 2.79784V4.14785C0.900146 4.33415 1.05136 4.48536 1.23766 4.48536H1.57517V15.2853H1.23766C1.05136 15.2853 0.900146 15.4365 0.900146 15.6228V16.9728C0.900146 17.1591 1.05136 17.3103 1.23766 17.3103H16.7626C16.9489 17.3103 17.1001 17.1591 17.1001 16.9728V15.6228C17.1001 15.4365 16.9489 15.2853 16.7626 15.2853H16.4251V4.48536H16.7626ZM5.62513 14.2728C5.62513 14.4591 5.47392 14.6103 5.28762 14.6103H3.26262C3.07635 14.6103 2.92514 14.4591 2.92514 14.2728V12.2478C2.92514 12.0615 3.07635 11.9103 3.26265 11.9103H5.28765C5.47395 11.9103 5.62516 12.0615 5.62516 12.2478V14.2728H5.62513ZM5.62513 10.8978C5.62513 11.0841 5.47392 11.2353 5.28762 11.2353H3.26262C3.07635 11.2353 2.92514 11.0841 2.92514 10.8978V8.87283C2.92514 8.68653 3.07635 8.53532 3.26265 8.53532H5.28765C5.47395 8.53532 5.62516 8.68653 5.62516 8.87283V10.8978H5.62513ZM5.62513 7.52285C5.62513 7.70915 5.47392 7.86036 5.28762 7.86036H3.26262C3.07632 7.86036 2.92511 7.70915 2.92511 7.52285V5.49785C2.92514 5.31155 3.07635 5.16034 3.26265 5.16034H5.28765C5.47395 5.16034 5.62516 5.31155 5.62516 5.49785V7.52285H5.62513ZM10.3501 15.2853H7.65015V12.2478C7.65015 12.0615 7.80136 11.9103 7.98766 11.9103H10.0127C10.199 11.9103 10.3502 12.0615 10.3502 12.2478V15.2853H10.3501ZM10.3501 10.8978C10.3501 11.0841 10.1989 11.2353 10.0126 11.2353H7.98763C7.80133 11.2353 7.65012 11.0841 7.65012 10.8978V8.87283C7.65012 8.68653 7.80133 8.53532 7.98763 8.53532H10.0126C10.1989 8.53532 10.3501 8.68653 10.3501 8.87283V10.8978ZM10.3501 7.52285C10.3501 7.70915 10.1989 7.86036 10.0126 7.86036H7.98763C7.80133 7.86036 7.65012 7.70915 7.65012 7.52285V5.49785C7.65012 5.31155 7.80133 5.16034 7.98763 5.16034H10.0126C10.1989 5.16034 10.3501 5.31155 10.3501 5.49785V7.52285ZM15.0751 14.2728C15.0751 14.4591 14.9239 14.6103 14.7376 14.6103H12.7126C12.5263 14.6103 12.3751 14.4591 12.3751 14.2728V12.2478C12.3751 12.0615 12.5263 11.9103 12.7126 11.9103H14.7376C14.9239 11.9103 15.0751 12.0615 15.0751 12.2478V14.2728ZM15.0751 10.8978C15.0751 11.0841 14.9239 11.2353 14.7376 11.2353H12.7126C12.5263 11.2353 12.3751 11.0841 12.3751 10.8978V8.87283C12.3751 8.68653 12.5263 8.53532 12.7126 8.53532H14.7376C14.9239 8.53532 15.0751 8.68653 15.0751 8.87283V10.8978ZM15.0751 7.52285C15.0751 7.70915 14.9239 7.86036 14.7376 7.86036H12.7126C12.5263 7.86036 12.3751 7.70915 12.3751 7.52285V5.49785C12.3751 5.31155 12.5263 5.16034 12.7126 5.16034H14.7376C14.9239 5.16034 15.0751 5.31155 15.0751 5.49785V7.52285Z" fill="#524797"/>
</svg>
