<svg width="20" height="23" viewBox="0 0 20 23" fill="none" xmlns="http://www.w3.org/2000/svg">
<path d="M14.0299 14.2701C15.3169 12.8025 16.1368 10.7292 16.1368 8.75007C16.1368 5.15334 13.4439 2.2373 10.1194 2.2373C6.79597 2.2373 4.10238 5.15242 4.10238 8.75007C4.10238 9.63972 4.27509 10.5448 4.57475 11.4089C5.3141 13.2116 6.7656 14.6118 8.60373 15.1204C8.96804 14.6335 9.51725 14.3416 10.1195 14.3416C11.1996 14.3416 12.079 15.2925 12.079 16.4619C12.079 17.6314 11.1996 18.5815 10.1195 18.5815C9.3504 18.5815 8.6702 18.096 8.35114 17.3711C6.77109 16.9947 5.38533 16.1364 4.3085 14.9582C1.93763 16.0545 0.399902 17.8002 0.399902 19.771C0.399902 23.0912 19.8397 23.0912 19.8397 19.771C19.8397 17.3114 17.4498 15.2007 14.0299 14.2701Z" fill="#524797"/>
<path d="M8.87851 16.7166C8.98962 17.3509 9.502 17.8305 10.1188 17.8305C10.8176 17.8305 11.3839 17.2173 11.3839 16.4617C11.3839 15.7062 10.8176 15.0929 10.1196 15.0929C9.58261 15.0929 9.12695 15.4563 8.94315 15.9674C5.76488 15.3623 3.3412 12.3595 3.3412 8.74913C3.3412 4.70388 6.38251 1.41258 10.1195 1.41258C13.8583 1.41258 16.8989 4.70388 16.8989 8.74913H17.5925C17.5925 4.28994 14.2402 0.661133 10.1195 0.661133C5.99917 0.661133 2.64673 4.28915 2.64673 8.74913C2.64612 12.751 5.34825 16.0737 8.87851 16.7166Z" fill="#524797"/>
</svg>
