<svg width="22" height="23" viewBox="0 0 22 23" fill="none" xmlns="http://www.w3.org/2000/svg">
<path d="M21.2937 10.2397L19.6516 8.59766C19.3708 8.31679 19.1439 7.76585 19.1439 7.37696V5.04358C19.1439 4.09294 18.3661 3.31515 17.4155 3.31515H15.0929C14.704 3.31515 14.1531 3.08829 13.8722 2.80742L12.2302 1.16541C11.5604 0.495644 10.4586 0.495644 9.78879 1.16541L8.12519 2.80742C7.85512 3.08829 7.30418 3.31515 6.90448 3.31515H4.58191C3.63127 3.31515 2.85348 4.09294 2.85348 5.04358V7.36615C2.85348 7.75505 2.62662 8.30599 2.34575 8.58686L0.703741 10.2289C0.0339743 10.8986 0.0339743 12.0005 0.703741 12.6703L2.34575 14.3123C2.62662 14.5931 2.85348 15.1441 2.85348 15.533V17.8556C2.85348 18.8062 3.63127 19.584 4.58191 19.584H6.90448C7.29338 19.584 7.84432 19.8108 8.12519 20.0917L9.76719 21.7337C10.437 22.4035 11.5388 22.4035 12.2086 21.7337L13.8506 20.0917C14.1315 19.8108 14.6824 19.584 15.0713 19.584H17.3939C18.3445 19.584 19.1223 18.8062 19.1223 17.8556V15.533C19.1223 15.1441 19.3492 14.5931 19.63 14.3123L21.2721 12.6703C21.9742 12.0113 21.9742 10.9094 21.2937 10.2397ZM6.67763 8.21957C6.67763 7.62542 7.16375 7.1393 7.7579 7.1393C8.35205 7.1393 8.83817 7.62542 8.83817 8.21957C8.83817 8.81372 8.36285 9.29984 7.7579 9.29984C7.16375 9.29984 6.67763 8.81372 6.67763 8.21957ZM8.33044 15.2737C8.1684 15.4358 7.96315 15.5114 7.7579 15.5114C7.55265 15.5114 7.3474 15.4358 7.18536 15.2737C6.87208 14.9604 6.87208 14.4419 7.18536 14.1286L13.667 7.64703C13.9802 7.33375 14.4988 7.33375 14.812 7.64703C15.1253 7.9603 15.1253 8.47883 14.812 8.79211L8.33044 15.2737ZM14.2395 15.7814C13.6346 15.7814 13.1484 15.2953 13.1484 14.7012C13.1484 14.107 13.6346 13.6209 14.2287 13.6209C14.8228 13.6209 15.309 14.107 15.309 14.7012C15.309 15.2953 14.8336 15.7814 14.2395 15.7814Z" fill="#524797"/>
</svg>
