<svg width="64" height="64" viewBox="0 0 64 64" fill="none" xmlns="http://www.w3.org/2000/svg">
<circle cx="32" cy="32" r="32" fill="#FCE7EB"/>
<circle cx="32" cy="31.9998" r="14.823" fill="#DE1135" stroke="#DE1135" stroke-width="2.754"/>
<path d="M28.6993 26.9278L28.7016 26.9254L28.6993 26.9278ZM28.6993 26.9278L28.5166 27.1104M28.6993 26.9278L28.5166 27.1104M28.5166 27.1104L31.8146 30.4085L31.8147 30.4085L31.9996 30.5935M28.5166 27.1104C28.9049 27.4987 28.9048 28.1282 28.5166 28.5164L27.8136 27.8134L28.5166 28.5164C28.1284 28.9047 27.4989 28.9047 27.1106 28.5164L30.4087 31.8144L30.4087 31.8145L30.5937 31.9994M31.9996 30.5935L32.1846 30.4085L32.1847 30.4084L35.4822 27.1109C35.0944 27.4993 35.0947 28.1284 35.4827 28.5165C35.4827 28.5165 35.4827 28.5165 35.4827 28.5165C35.8709 28.9046 36.5001 28.9047 36.8883 28.5168L33.5907 31.8144L33.5906 31.8145L33.4056 31.9995M31.9996 30.5935L30.5937 31.9994M31.9996 30.5935L31.9997 30.5936L33.4056 31.9995M30.5937 31.9994L30.5936 31.9995L30.5937 31.9996M30.5937 31.9994L30.5938 31.9995L30.5937 31.9996M30.5937 31.9996L30.4088 32.1845L30.4087 32.1846L27.1107 35.4825C27.499 35.0942 28.1285 35.0943 28.5167 35.4825C28.9046 35.8705 28.9051 36.4999 28.5167 36.8886L31.8146 33.5905L31.8147 33.5905L31.9996 33.4055M30.5937 31.9996L31.9996 33.4055M31.9996 33.4055L32.1846 33.5905L32.1847 33.5906L35.4827 36.8884M31.9996 33.4055L31.9997 33.4054L31.9997 33.4054L33.4056 31.9995M35.4827 36.8884L35.4827 36.8885L36.1857 36.1855L35.4827 36.8884ZM35.4827 36.8884C35.0945 36.5002 35.0945 35.8708 35.4827 35.4825C35.8707 35.0945 36.4995 35.0943 36.8878 35.4817L33.5907 32.1846L33.5906 32.1845L33.4056 31.9995" fill="#DE1135" stroke="white" stroke-width="4.5"/>
</svg>
