<svg width="16" height="16" viewBox="0 0 16 16" fill="none" xmlns="http://www.w3.org/2000/svg">
<path fill-rule="evenodd" clip-rule="evenodd" d="M5.30005 0.799805H10.7C13.1849 0.799805 15.2 2.8149 15.2 5.2998V10.6998C15.2 13.1847 13.1849 15.1998 10.7 15.1998H5.30005C2.81515 15.1998 0.800049 13.1847 0.800049 10.6998V5.2998C0.800049 2.8149 2.81515 0.799805 5.30005 0.799805ZM10.7 13.85C12.437 13.85 13.85 12.437 13.85 10.7V5.3C13.85 3.563 12.437 2.15 10.7 2.15H5.3C3.563 2.15 2.15 3.563 2.15 5.3V10.7C2.15 12.437 3.563 13.85 5.3 13.85H10.7Z" fill="#524797"/>
<path fill-rule="evenodd" clip-rule="evenodd" d="M4.40015 7.99941C4.40015 6.01131 6.01205 4.39941 8.00015 4.39941C9.98825 4.39941 11.6001 6.01131 11.6001 7.99941C11.6001 9.98751 9.98825 11.5994 8.00015 11.5994C6.01205 11.5994 4.40015 9.98751 4.40015 7.99941ZM5.75015 7.99941C5.75015 9.23961 6.75995 10.2494 8.00015 10.2494C9.24035 10.2494 10.2501 9.23961 10.2501 7.99941C10.2501 6.75831 9.24035 5.74941 8.00015 5.74941C6.75995 5.74941 5.75015 6.75831 5.75015 7.99941Z" fill="#524797"/>
<circle cx="11.8701" cy="4.13009" r="0.4797" fill="#524797"/>
</svg>
