<svg width="20" height="21" viewBox="0 0 20 21" fill="none" xmlns="http://www.w3.org/2000/svg">
<g clip-path="url(#clip0_1192_73010)">
<path d="M17.0834 1.33398H2.91671C2.69569 1.33398 2.48373 1.42178 2.32745 1.57806C2.17117 1.73434 2.08337 1.9463 2.08337 2.16732V18.4173C2.08337 18.5278 2.12727 18.6338 2.20541 18.7119C2.28355 18.7901 2.38953 18.834 2.50004 18.834C2.60905 18.8284 2.71247 18.7841 2.79171 18.709L5.41671 16.7923L7.20837 18.709C7.28626 18.7853 7.39098 18.8281 7.50004 18.8281C7.6091 18.8281 7.71382 18.7853 7.79171 18.709L10 16.7923L12.2084 18.709C12.2863 18.7853 12.391 18.8281 12.5 18.8281C12.6091 18.8281 12.7138 18.7853 12.7917 18.709L14.5834 16.7923L17.2084 18.709C17.2876 18.7841 17.391 18.8284 17.5 18.834C17.6105 18.834 17.7165 18.7901 17.7947 18.7119C17.8728 18.6338 17.9167 18.5278 17.9167 18.4173V2.16732C17.9167 1.9463 17.8289 1.73434 17.6726 1.57806C17.5163 1.42178 17.3044 1.33398 17.0834 1.33398ZM10 13.0007H6.66671C6.44569 13.0007 6.23373 12.9129 6.07745 12.7566C5.92117 12.6003 5.83337 12.3883 5.83337 12.1673C5.83337 11.9463 5.92117 11.7343 6.07745 11.5781C6.23373 11.4218 6.44569 11.334 6.66671 11.334H10C10.2211 11.334 10.433 11.4218 10.5893 11.5781C10.7456 11.7343 10.8334 11.9463 10.8334 12.1673C10.8334 12.3883 10.7456 12.6003 10.5893 12.7566C10.433 12.9129 10.2211 13.0007 10 13.0007ZM10 9.66732H6.66671C6.44569 9.66732 6.23373 9.57952 6.07745 9.42324C5.92117 9.26696 5.83337 9.055 5.83337 8.83398C5.83337 8.61297 5.92117 8.40101 6.07745 8.24473C6.23373 8.08845 6.44569 8.00065 6.66671 8.00065H10C10.2211 8.00065 10.433 8.08845 10.5893 8.24473C10.7456 8.40101 10.8334 8.61297 10.8334 8.83398C10.8334 9.055 10.7456 9.26696 10.5893 9.42324C10.433 9.57952 10.2211 9.66732 10 9.66732ZM10 6.33398H6.66671C6.44569 6.33398 6.23373 6.24619 6.07745 6.08991C5.92117 5.93363 5.83337 5.72166 5.83337 5.50065C5.83337 5.27964 5.92117 5.06768 6.07745 4.9114C6.23373 4.75512 6.44569 4.66732 6.66671 4.66732H10C10.2211 4.66732 10.433 4.75512 10.5893 4.9114C10.7456 5.06768 10.8334 5.27964 10.8334 5.50065C10.8334 5.72166 10.7456 5.93363 10.5893 6.08991C10.433 6.24619 10.2211 6.33398 10 6.33398ZM13.3334 13.0007H12.5C12.279 13.0007 12.0671 12.9129 11.9108 12.7566C11.7545 12.6003 11.6667 12.3883 11.6667 12.1673C11.6667 11.9463 11.7545 11.7343 11.9108 11.5781C12.0671 11.4218 12.279 11.334 12.5 11.334H13.3334C13.5544 11.334 13.7663 11.4218 13.9226 11.5781C14.0789 11.7343 14.1667 11.9463 14.1667 12.1673C14.1667 12.3883 14.0789 12.6003 13.9226 12.7566C13.7663 12.9129 13.5544 13.0007 13.3334 13.0007ZM13.3334 9.66732H12.5C12.279 9.66732 12.0671 9.57952 11.9108 9.42324C11.7545 9.26696 11.6667 9.055 11.6667 8.83398C11.6667 8.61297 11.7545 8.40101 11.9108 8.24473C12.0671 8.08845 12.279 8.00065 12.5 8.00065H13.3334C13.5544 8.00065 13.7663 8.08845 13.9226 8.24473C14.0789 8.40101 14.1667 8.61297 14.1667 8.83398C14.1667 9.055 14.0789 9.26696 13.9226 9.42324C13.7663 9.57952 13.5544 9.66732 13.3334 9.66732ZM13.3334 6.33398H12.5C12.279 6.33398 12.0671 6.24619 11.9108 6.08991C11.7545 5.93363 11.6667 5.72166 11.6667 5.50065C11.6667 5.27964 11.7545 5.06768 11.9108 4.9114C12.0671 4.75512 12.279 4.66732 12.5 4.66732H13.3334C13.5544 4.66732 13.7663 4.75512 13.9226 4.9114C14.0789 5.06768 14.1667 5.27964 14.1667 5.50065C14.1667 5.72166 14.0789 5.93363 13.9226 6.08991C13.7663 6.24619 13.5544 6.33398 13.3334 6.33398Z" fill="#A9A9AA"/>
</g>
<defs>
<clipPath id="clip0_1192_73010">
<rect width="20" height="20" fill="white" transform="translate(0 0.5)"/>
</clipPath>
</defs>
</svg>
