<svg width="14" height="18" viewBox="0 0 14 18" fill="none" xmlns="http://www.w3.org/2000/svg">
<path d="M7.00004 13.6673C7.44207 13.6673 7.86599 13.4917 8.17855 13.1792C8.49111 12.8666 8.66671 12.4427 8.66671 12.0007C8.66671 11.5586 8.49111 11.1347 8.17855 10.8221C7.86599 10.5096 7.44207 10.334 7.00004 10.334C6.55801 10.334 6.13409 10.5096 5.82153 10.8221C5.50897 11.1347 5.33337 11.5586 5.33337 12.0007C5.33337 12.4427 5.50897 12.8666 5.82153 13.1792C6.13409 13.4917 6.55801 13.6673 7.00004 13.6673ZM12 6.16732C12.4421 6.16732 12.866 6.34291 13.1786 6.65547C13.4911 6.96803 13.6667 7.39196 13.6667 7.83398V16.1673C13.6667 16.6093 13.4911 17.0333 13.1786 17.3458C12.866 17.6584 12.4421 17.834 12 17.834H2.00004C1.55801 17.834 1.13409 17.6584 0.821529 17.3458C0.508969 17.0333 0.333374 16.6093 0.333374 16.1673V7.83398C0.333374 7.39196 0.508969 6.96803 0.821529 6.65547C1.13409 6.34291 1.55801 6.16732 2.00004 6.16732H2.83337V4.50065C2.83337 3.39558 3.27236 2.33577 4.05376 1.55437C4.83516 0.772971 5.89497 0.333984 7.00004 0.333984C7.54721 0.333984 8.08903 0.441758 8.59455 0.651153C9.10008 0.860548 9.55941 1.16746 9.94632 1.55437C10.3332 1.94128 10.6401 2.40061 10.8495 2.90614C11.0589 3.41166 11.1667 3.95348 11.1667 4.50065V6.16732H12ZM7.00004 2.00065C6.337 2.00065 5.70111 2.26404 5.23227 2.73288C4.76343 3.20173 4.50004 3.83761 4.50004 4.50065V6.16732H9.50004V4.50065C9.50004 3.83761 9.23665 3.20173 8.76781 2.73288C8.29897 2.26404 7.66308 2.00065 7.00004 2.00065Z" fill="#A9A9AA"/>
</svg>
