<svg width="46" height="46" viewBox="0 0 46 46" fill="none" xmlns="http://www.w3.org/2000/svg">
<rect x="0.75" y="0.75" width="44.5" height="44.5" rx="7.25" fill="#FEF6E9"/>
<rect x="0.75" y="0.75" width="44.5" height="44.5" rx="7.25" stroke="#FCE2BC" stroke-width="1.5"/>
<path d="M33.8002 19.0258V29.4802C33.8002 30.053 33.5726 30.6024 33.1675 31.0075C32.7625 31.4126 32.2131 31.6402 31.6402 31.6402H14.3602C13.7873 31.6402 13.2379 31.4126 12.8328 31.0075C12.4278 30.6024 12.2002 30.053 12.2002 29.4802V19.4254L14.3602 20.6026L22.4818 25.0306C22.641 25.1165 22.8193 25.1611 23.0002 25.1602C23.1904 25.1582 23.3766 25.106 23.5402 25.009L31.6402 20.2894L33.8002 19.0258Z" fill="#524797"/>
<path d="M33.8002 16.5199L31.6402 17.7943L23.0002 22.8379L14.3602 18.1399L12.2002 16.9519V16.5199C12.2002 15.947 12.4278 15.3976 12.8328 14.9925C13.2379 14.5874 13.7873 14.3599 14.3602 14.3599H31.6402C32.2131 14.3599 32.7625 14.5874 33.1675 14.9925C33.5726 15.3976 33.8002 15.947 33.8002 16.5199Z" fill="#524797"/>
</svg>
