<svg width="46" height="46" viewBox="0 0 46 46" fill="none" xmlns="http://www.w3.org/2000/svg">
<rect x="0.75" y="0.75" width="44.5" height="44.5" rx="7.25" fill="#FEF6E9"/>
<rect x="0.75" y="0.75" width="44.5" height="44.5" rx="7.25" stroke="#FCE2BC" stroke-width="1.5"/>
<path d="M26.7933 25.0334L26.3074 25.5164C26.3074 25.5164 25.1527 26.6647 22.0007 23.5305C18.8487 20.3964 20.0034 19.2482 20.0034 19.2482L20.3093 18.944C21.0631 18.1946 21.1341 16.9915 20.4765 16.1132L19.1315 14.3165C18.3176 13.2294 16.745 13.0858 15.8122 14.0133L14.138 15.678C13.6755 16.1379 13.3655 16.7341 13.4031 17.3955C13.4993 19.0874 14.2648 22.7278 18.5364 26.9752C23.0663 31.4793 27.3166 31.6583 29.0547 31.4962C29.6045 31.445 30.0826 31.165 30.4678 30.7819L31.9832 29.2753C33.006 28.2583 32.7176 26.5147 31.4089 25.8033L29.371 24.6955C28.5117 24.2284 27.4649 24.3656 26.7933 25.0334Z" fill="#524797"/>
</svg>
