<svg width="46" height="46" viewBox="0 0 46 46" fill="none" xmlns="http://www.w3.org/2000/svg">
<rect x="0.75" y="0.75" width="44.5" height="44.5" rx="7.25" fill="#FEF6E9"/>
<rect x="0.75" y="0.75" width="44.5" height="44.5" rx="7.25" stroke="#FCE2BC" stroke-width="1.5"/>
<path d="M33.501 23.2333C33.501 22.37 33.4296 21.74 33.2748 21.0867H23.2153V24.9833H29.12C29.001 25.9517 28.3582 27.41 26.9296 28.3899L26.9096 28.5204L30.0902 30.9351L30.3106 30.9567C32.3343 29.125 33.501 26.43 33.501 23.2333Z" fill="#00AA11"/>
<path d="M23.2147 33.5C26.1075 33.5 28.5361 32.5666 30.3099 30.9566L26.929 28.3898C26.0242 29.0082 24.8099 29.4399 23.2147 29.4399C20.3814 29.4399 17.9767 27.6082 17.1195 25.0765L16.9938 25.087L13.6866 27.5954L13.6433 27.7132C15.4052 31.1432 19.0242 33.5 23.2147 33.5Z" fill="#34A853"/>
<path d="M17.12 25.0766C16.8938 24.4233 16.7629 23.7232 16.7629 22.9999C16.7629 22.2765 16.8938 21.5766 17.1081 20.9232L17.1021 20.7841L13.7534 18.2355L13.6438 18.2865C12.9176 19.7099 12.501 21.3083 12.501 22.9999C12.501 24.6916 12.9176 26.2899 13.6438 27.7132L17.12 25.0766Z" fill="#FBBC05"/>
<path d="M23.2148 16.56C25.2267 16.56 26.5838 17.4116 27.3576 18.1234L30.3814 15.23C28.5243 13.5383 26.1076 12.5 23.2148 12.5C19.0243 12.5 15.4052 14.8566 13.6433 18.2866L17.1076 20.9233C17.9767 18.3917 20.3815 16.56 23.2148 16.56Z" fill="#EB4335"/>
</svg>
