<svg width="20" height="21" viewBox="0 0 20 21" fill="none" xmlns="http://www.w3.org/2000/svg">
<path d="M15.4 1.5H4.59995C4.36126 1.5 4.13234 1.59482 3.96356 1.7636C3.79477 1.93239 3.69995 2.16131 3.69995 2.4V10.5L8.19995 6.9V9.6H13.6V11.4H8.19995V14.1L3.69995 10.5V18.6C3.69995 18.8387 3.79477 19.0676 3.96356 19.2364C4.13234 19.4052 4.36126 19.5 4.59995 19.5H15.4C15.6386 19.5 15.8676 19.4052 16.0363 19.2364C16.2051 19.0676 16.3 18.8387 16.3 18.6V2.4C16.3 2.16131 16.2051 1.93239 16.0363 1.7636C15.8676 1.59482 15.6386 1.5 15.4 1.5Z" fill="#A9A9AA"/>
</svg>
