<svg width="16" height="17" viewBox="0 0 16 17" fill="none" xmlns="http://www.w3.org/2000/svg">
<path d="M15.2 5.73438V12.704C15.2 13.0859 15.0483 13.4522 14.7783 13.7222C14.5082 13.9923 14.142 14.144 13.76 14.144H2.24005C1.85814 14.144 1.49187 13.9923 1.22182 13.7222C0.951763 13.4522 0.800049 13.0859 0.800049 12.704V6.00077L2.24005 6.78558L7.65445 9.73758C7.76059 9.79487 7.87943 9.82458 8.00005 9.82398C8.12683 9.82266 8.25102 9.78789 8.36005 9.72318L13.76 6.57678L15.2 5.73438Z" fill="#524797"/>
<path d="M15.2 4.06354L13.76 4.91313L8.00005 8.27554L2.24005 5.14354L0.800049 4.35154V4.06354C0.800049 3.68162 0.951763 3.31535 1.22182 3.0453C1.49187 2.77525 1.85814 2.62354 2.24005 2.62354H13.76C14.142 2.62354 14.5082 2.77525 14.7783 3.0453C15.0483 3.31535 15.2 3.68162 15.2 4.06354Z" fill="#524797"/>
</svg>
