<svg width="18" height="19" viewBox="0 0 18 19" fill="none" xmlns="http://www.w3.org/2000/svg">
<path fillRule="evenodd" clip-rule="evenodd" d="M8.99383 13.2058C9.03402 13.2058 9.18974 13.2075 9.42353 13.2481L9.39176 13.7669C9.38117 14.0422 9.14824 14.2646 8.87295 14.2646C8.25882 14.2646 7.8353 14.4446 7.54942 14.8046C6.90353 15.6305 7.12588 17.2717 7.26353 17.8434C7.30588 18.0022 7.26353 18.1717 7.16824 18.2987C7.06236 18.4258 6.91412 18.4999 6.7553 18.4999H4.7647C4.46824 18.4999 4.2353 18.2669 4.2353 17.9705V13.2058H8.99383ZM14.8796 0.792864C14.9887 0.572626 15.2322 0.459339 15.4747 0.513339C15.714 0.570517 15.8824 0.783339 15.8824 1.02898V5.84769C17.0894 6.09334 18 7.16275 18 8.44075C18 9.71875 17.0894 10.7892 15.8824 11.0349V15.8525C15.8824 16.0982 15.714 16.312 15.4747 16.3682C15.4348 16.3774 15.3939 16.382 15.3529 16.3819C15.1549 16.3819 14.9707 16.2718 14.8796 16.0897C12.9304 12.1922 9.03919 12.1466 9 12.1466H3.70588C2.24576 12.1466 1.05882 10.9597 1.05882 9.49958V8.97016H0.529416C0.237178 8.97016 0 8.73404 0 8.44075C0 8.14852 0.237178 7.91134 0.529406 7.91134H1.05882V7.38193C1.05882 5.92286 2.24576 4.73486 3.70588 4.73486H8.99894C9.15776 4.7338 12.9409 4.66922 14.8796 0.792864Z" fill="#A9A9AA"/>
</svg>
