<svg width="20" height="21" viewBox="0 0 20 21" fill="none" xmlns="http://www.w3.org/2000/svg">
<path d="M17.2001 3.30078H11.8001V5.55078C11.8001 5.78948 11.7053 6.01839 11.5365 6.18718C11.3677 6.35596 11.1388 6.45078 10.9001 6.45078C10.6614 6.45078 10.4325 6.35596 10.2637 6.18718C10.0949 6.01839 10.0001 5.78948 10.0001 5.55078V3.30078H2.80012C2.32273 3.30078 1.8649 3.49042 1.52733 3.82799C1.18976 4.16555 1.00012 4.62339 1.00012 5.10078V7.80078C1.00012 8.03948 1.09494 8.26839 1.26373 8.43718C1.43251 8.60596 1.66143 8.70078 1.90012 8.70078C2.37751 8.70078 2.83535 8.89042 3.17291 9.22799C3.51048 9.56556 3.70012 10.0234 3.70012 10.5008C3.70012 10.9782 3.51048 11.436 3.17291 11.7736C2.83535 12.1111 2.37751 12.3008 1.90012 12.3008C1.66143 12.3008 1.43251 12.3956 1.26373 12.5644C1.09494 12.7332 1.00012 12.9621 1.00012 13.2008V15.9008C1.00012 16.3782 1.18976 16.836 1.52733 17.1736C1.8649 17.5111 2.32273 17.7008 2.80012 17.7008H10.0001V15.4508C10.0001 15.2121 10.0949 14.9832 10.2637 14.8144C10.4325 14.6456 10.6614 14.5508 10.9001 14.5508C11.1388 14.5508 11.3677 14.6456 11.5365 14.8144C11.7053 14.9832 11.8001 15.2121 11.8001 15.4508V17.7008H17.2001C17.6775 17.7008 18.1353 17.5111 18.4729 17.1736C18.8105 16.836 19.0001 16.3782 19.0001 15.9008V5.10078C19.0001 4.62339 18.8105 4.16555 18.4729 3.82799C18.1353 3.49042 17.6775 3.30078 17.2001 3.30078ZM11.8001 12.1478C11.8001 12.3865 11.7053 12.6154 11.5365 12.7842C11.3677 12.953 11.1388 13.0478 10.9001 13.0478C10.6614 13.0478 10.4325 12.953 10.2637 12.7842C10.0949 12.6154 10.0001 12.3865 10.0001 12.1478V8.85378C10.0001 8.61509 10.0949 8.38617 10.2637 8.21739C10.4325 8.0486 10.6614 7.95378 10.9001 7.95378C11.1388 7.95378 11.3677 8.0486 11.5365 8.21739C11.7053 8.38617 11.8001 8.61509 11.8001 8.85378V12.1478Z" fill="#A9A9AA"/>
</svg>
