<svg width="9" height="9" viewBox="0 0 9 9" fill="none" xmlns="http://www.w3.org/2000/svg">
<path d="M1.6875 8.46094V6.58594V8.46094ZM1.6875 2.83594V0.960938V2.83594ZM0.75 1.89844H2.625H0.75ZM0.75 7.52344H2.625H0.75ZM4.875 1.33594L4.22468 3.02676C4.11893 3.30172 4.06605 3.4392 3.98381 3.55485C3.91095 3.65734 3.8214 3.74688 3.71891 3.81976C3.60327 3.90199 3.46578 3.95487 3.19082 4.06061L1.5 4.71094L3.19082 5.36126C3.46578 5.46701 3.60327 5.51989 3.71891 5.60212C3.8214 5.67499 3.91095 5.76454 3.98381 5.86702C4.06605 5.98268 4.11893 6.12015 4.22468 6.3951L4.875 8.08594L5.52532 6.3951C5.63107 6.12015 5.68395 5.98268 5.76619 5.86702C5.83905 5.76454 5.9286 5.67499 6.03109 5.60212C6.14674 5.51989 6.28421 5.46701 6.55916 5.36126L8.25 4.71094L6.55916 4.06061C6.28421 3.95487 6.14674 3.90199 6.03109 3.81976C5.9286 3.74688 5.83905 3.65734 5.76619 3.55485C5.68395 3.4392 5.63107 3.30172 5.52532 3.02676L4.875 1.33594Z" fill="#3A326B"/>
<path d="M1.6875 8.46094V6.58594M1.6875 2.83594V0.960938M0.75 1.89844H2.625M0.75 7.52344H2.625M4.875 1.33594L4.22468 3.02676C4.11893 3.30172 4.06605 3.4392 3.98381 3.55485C3.91095 3.65734 3.8214 3.74688 3.71891 3.81976C3.60327 3.90199 3.46578 3.95487 3.19082 4.06061L1.5 4.71094L3.19082 5.36126C3.46578 5.46701 3.60327 5.51989 3.71891 5.60212C3.8214 5.67499 3.91095 5.76454 3.98381 5.86703C4.06605 5.98268 4.11893 6.12015 4.22468 6.3951L4.875 8.08594L5.52532 6.3951C5.63107 6.12015 5.68395 5.98268 5.76619 5.86703C5.83905 5.76454 5.9286 5.67499 6.03109 5.60212C6.14674 5.51989 6.28421 5.46701 6.55916 5.36126L8.25 4.71094L6.55916 4.06061C6.28421 3.95487 6.14674 3.90199 6.03109 3.81976C5.9286 3.74688 5.83905 3.65734 5.76619 3.55485C5.68395 3.4392 5.63107 3.30172 5.52532 3.02676L4.875 1.33594Z" stroke="#3A326B" stroke-width="0.6" stroke-linecap="round" stroke-linejoin="round"/>
</svg>
