<svg width="21" height="22" viewBox="0 0 21 22" fill="none" xmlns="http://www.w3.org/2000/svg">
<path d="M19.8235 3.28377C19.7847 3.00528 19.5843 2.77619 19.3134 2.7009L10.632 0.286578C10.5082 0.25213 10.3775 0.25213 10.2536 0.286578L1.57215 2.7009C1.30128 2.77619 1.1009 3.00518 1.06213 3.28377C1.01177 3.64585 -0.13694 12.2008 2.80943 16.4567C5.75232 20.7074 10.0937 21.7967 10.2771 21.8411C10.3316 21.8542 10.3871 21.8607 10.4428 21.8607C10.4985 21.8607 10.554 21.8542 10.6085 21.8411C10.792 21.7967 15.1334 20.7074 18.0762 16.4567C21.0225 12.2009 19.8738 3.64594 19.8235 3.28377ZM16.0412 8.27825L10.1196 14.1999C9.98181 14.3377 9.8011 14.4067 9.62049 14.4067C9.43988 14.4067 9.25917 14.3378 9.12138 14.1999L5.46008 10.5386C5.32766 10.4063 5.25331 10.2267 5.25331 10.0395C5.25331 9.85229 5.32775 9.67271 5.46008 9.54038L6.18705 8.81341C6.46273 8.53783 6.90969 8.53774 7.18527 8.81341L9.62049 11.2486L14.316 6.55297C14.4484 6.42055 14.628 6.34619 14.8152 6.34619C15.0024 6.34619 15.1819 6.42055 15.3143 6.55297L16.0412 7.27994C16.3169 7.55561 16.3169 8.00258 16.0412 8.27825Z" fill="#524797"/>
</svg>
