<svg width="136" height="39" viewBox="0 0 136 39" fill="none" xmlns="http://www.w3.org/2000/svg">
<g clip-path="url(#clip0_1000_37851)">
<path d="M25.6661 36.9963C22.3205 33.4886 2.89931 39.8259 1.18365 38.8671C-0.137404 37.6277 -0.343283 13.2843 0.514545 9.56616C0.823363 8.25663 1.25228 7.9994 2.38461 8.4437C3.73998 9.12186 20.4848 6.0117 26.0092 5.07632C26.3523 5.80124 27.0729 3.20555 27.2788 4.11755C27.6905 5.45047 65.4864 1.9194 66.5501 1.87263C68.403 1.77909 66.9619 3.25232 69.1236 2.69109C73.7387 1.52186 83.8611 2.94832 87.3439 1.77909C90.1575 0.843703 90.758 0.820318 93.4516 1.82586C95.802 2.69109 110.814 2.69109 112.564 1.19447C112.993 0.773549 113.302 0.960626 113.285 1.49847C113.285 1.54524 118.397 2.34032 118.432 2.34032C121.005 2.76124 123.579 3.2757 123.596 3.48616C123.647 4.02401 123.956 4.30463 124.265 3.97724C124.814 3.41601 135.88 2.80801 135.966 4.39816C136.24 8.95817 133.718 27.8296 132.26 32.3194C130.733 37.0899 124.179 30.6357 118.38 33.0443C89.111 30.472 92.9712 31.08 86.7949 32.8339C86.1601 31.1736 83.7238 35.1022 82.2141 32.2259C81.5964 31.0566 77.1529 30.776 76.1749 31.9452C75.7632 32.4363 69.8613 31.9452 63.8051 31.8751C57.7317 31.8049 51.4695 32.2025 50.3715 33.8394C45.6878 31.0332 27.9822 36.4351 25.6489 36.9729L25.6661 36.9963Z" fill="#F6A227"/>
</g>
<defs>
<clipPath id="clip0_1000_37851">
<rect width="136" height="38" fill="white" transform="translate(0 0.960938)"/>
</clipPath>
</defs>
</svg>
