<svg width="65" height="64" viewBox="0 0 65 64" fill="none" xmlns="http://www.w3.org/2000/svg">
<circle cx="32.4985" cy="32" r="32" fill="#FEF8EA"/>
<path d="M43.4548 20.5445C40.5284 17.6157 36.4681 15.7989 32 15.7998C27.5319 15.7989 23.4711 17.6157 20.5446 20.5445C17.6159 23.4709 15.799 27.5316 15.8 31.9998C15.799 36.468 17.6159 40.5287 20.5446 43.4551C23.4711 46.3839 27.5319 48.2008 32 48.1998C36.4681 48.2008 40.5284 46.3839 43.4548 43.4551C46.384 40.5287 48.2009 36.468 48.2 31.9998C48.2009 27.5316 46.3841 23.4709 43.4548 20.5445Z" fill="#F6BC2F"/>
<path d="M31.3447 35.3464C31.3667 35.4923 31.4396 35.6324 31.563 35.7673C31.6859 35.9017 31.8317 35.9688 32 35.9688C32.3916 35.9688 32.6103 35.7615 32.6546 35.3464L33.9655 25.2767C33.9874 25.0986 33.9989 24.8459 33.9989 24.521C33.9989 24.0168 33.8255 23.5584 33.4786 23.1433C33.1312 22.7293 32.6385 22.522 32 22.522C31.338 22.522 30.8401 22.7345 30.5047 23.1594C30.1687 23.5746 30.0005 24.0282 30.0005 24.521C30.0005 24.824 30.0115 25.0756 30.0338 25.2767L31.3447 35.3464Z" fill="white"/>
<path d="M32 41.4772C32.5708 41.4772 33.052 41.2818 33.4448 40.8892C33.8364 40.4981 34.0323 40.0158 34.0323 39.4449C34.0323 38.8736 33.8365 38.3918 33.4448 37.9996C33.0641 37.6183 32.5823 37.4282 32 37.4282C31.4292 37.4282 30.9473 37.6251 30.5546 38.0163C30.1624 38.409 29.9671 38.8845 29.9671 39.4449C29.9671 39.9819 30.1624 40.4579 30.5546 40.8725C30.9473 41.2762 31.4292 41.4772 32 41.4772Z" fill="white"/>
</svg>
